<svg width="24" height="24" viewBox="0 0 24 24" fill="none" xmlns="http://www.w3.org/2000/svg">
<path d="M13.2873 11.9664L7.8469 6.59048C7.56066 6.30594 7.4 5.92104 7.4 5.51984C7.4 5.11864 7.56066 4.73374 7.8469 4.44921C7.98977 4.30687 8.15975 4.19389 8.34702 4.11679C8.5343 4.03969 8.73517 4 8.93806 4C9.14094 4 9.34181 4.03969 9.52909 4.11679C9.71637 4.19389 9.88634 4.30687 10.0292 4.44921L16.5454 10.8882C16.6895 11.0294 16.8038 11.1973 16.8818 11.3824C16.9598 11.5675 17 11.7659 17 11.9664C17 12.1669 16.9598 12.3654 16.8818 12.5505C16.8038 12.7355 16.6895 12.9035 16.5454 13.0447L10.0292 19.5596C9.88561 19.7003 9.7153 19.8117 9.52806 19.8872C9.34081 19.9628 9.14031 20.0011 8.93806 20C8.7358 20.0011 8.5353 19.9628 8.34805 19.8872C8.16081 19.8117 7.9905 19.7003 7.8469 19.5596C7.56066 19.275 7.4 18.8901 7.4 18.4889C7.4 18.0877 7.56066 17.7028 7.8469 17.4183L13.2873 11.9664Z" fill="#430D0B"/>
</svg>
