<svg width="16" height="16" viewBox="0 0 16 16" fill="none" xmlns="http://www.w3.org/2000/svg">
<g clip-path="url(#clip0_23_3466)">
<path d="M8.00014 0.640015C3.93582 0.640015 0.640137 3.93537 0.640137 8.00001C0.640137 12.0647 3.93582 15.36 8.00014 15.36C12.0645 15.36 15.3601 12.0647 15.3601 8.00001C15.3601 3.93537 12.0645 0.640015 8.00014 0.640015Z" stroke="#430D0B" stroke-miterlimit="10" stroke-linecap="round" stroke-linejoin="round"/>
<path d="M5.98721 11.1101L4.73633 7.25027L8.00833 4.86499L11.281 7.25027L10.0314 11.1101H5.98721Z" stroke="#430D0B" stroke-miterlimit="10" stroke-linecap="round" stroke-linejoin="round"/>
<path d="M10.7962 1.21216L8.00839 2.4016L5.22119 1.21216" stroke="#430D0B" stroke-miterlimit="10" stroke-linecap="round" stroke-linejoin="round"/>
<path d="M2.44668 3.23389L2.71452 6.26205L0.724121 8.55325" stroke="#430D0B" stroke-miterlimit="10" stroke-linecap="round" stroke-linejoin="round"/>
<path d="M1.78418 11.8263L4.73682 12.5063L6.2949 15.113" stroke="#430D0B" stroke-miterlimit="10" stroke-linecap="round" stroke-linejoin="round"/>
<path d="M9.72412 15.113L11.2809 12.505L14.2326 11.825" stroke="#430D0B" stroke-miterlimit="10" stroke-linecap="round" stroke-linejoin="round"/>
<path d="M15.2938 8.55261L13.3018 6.26013L13.5693 3.23389" stroke="#430D0B" stroke-miterlimit="10" stroke-linecap="round" stroke-linejoin="round"/>
<path d="M8.0083 2.40161V4.86497" stroke="#430D0B" stroke-miterlimit="10" stroke-linecap="round" stroke-linejoin="round"/>
<path d="M11.2808 7.34589L13.3016 6.26013" stroke="#430D0B" stroke-miterlimit="10" stroke-linecap="round" stroke-linejoin="round"/>
<path d="M10.0312 11.1101L11.2808 12.505" stroke="#430D0B" stroke-miterlimit="10" stroke-linecap="round" stroke-linejoin="round"/>
<path d="M5.98706 11.1101L4.73682 12.5063" stroke="#430D0B" stroke-miterlimit="10" stroke-linecap="round" stroke-linejoin="round"/>
<path d="M2.71436 6.26208L4.73612 7.25024" stroke="#430D0B" stroke-miterlimit="10" stroke-linecap="round" stroke-linejoin="round"/>
</g>
<defs>
<clipPath id="clip0_23_3466">
<rect width="16" height="16" fill="white"/>
</clipPath>
</defs>
</svg>
