<svg width="25" height="24" viewBox="0 0 25 24" fill="none" xmlns="http://www.w3.org/2000/svg">
<path d="M20.25 9H18.75V4.5C18.75 3.90326 18.5129 3.33097 18.091 2.90901C17.669 2.48705 17.0967 2.25 16.5 2.25H5.25C4.65326 2.25 4.08097 2.48705 3.65901 2.90901C3.23705 3.33097 3 3.90326 3 4.5V18.3075L6.84 14.4675C6.98373 14.3304 7.17392 14.2528 7.3725 14.25H9.75V16.5C9.75 17.0967 9.98705 17.669 10.409 18.091C10.831 18.5129 11.4033 18.75 12 18.75H18.1275C18.3261 18.7528 18.5163 18.8304 18.66 18.9675L22.5 22.8075V11.25C22.5 10.6533 22.2629 10.081 21.841 9.65901C21.419 9.23705 20.8467 9 20.25 9ZM9.75 11.25V12.75H7.3725C6.77596 12.7505 6.20405 12.9879 5.7825 13.41L4.5 14.6925V4.5C4.5 4.30109 4.57902 4.11032 4.71967 3.96967C4.86032 3.82902 5.05109 3.75 5.25 3.75H16.5C16.6989 3.75 16.8897 3.82902 17.0303 3.96967C17.171 4.11032 17.25 4.30109 17.25 4.5V9H12C11.4033 9 10.831 9.23705 10.409 9.65901C9.98705 10.081 9.75 10.6533 9.75 11.25ZM21 19.1925L19.7175 17.91C19.2959 17.4879 18.724 17.2505 18.1275 17.25H12C11.8011 17.25 11.6103 17.171 11.4697 17.0303C11.329 16.8897 11.25 16.6989 11.25 16.5V11.25C11.25 11.0511 11.329 10.8603 11.4697 10.7197C11.6103 10.579 11.8011 10.5 12 10.5H20.25C20.4489 10.5 20.6397 10.579 20.7803 10.7197C20.921 10.8603 21 11.0511 21 11.25V19.1925Z" fill="white"/>
</svg>
