<svg width="16" height="16" viewBox="0 0 16 16" fill="none" xmlns="http://www.w3.org/2000/svg">
<path d="M8 14C6.81331 14 5.65328 13.6481 4.66658 12.9888C3.67989 12.3295 2.91085 11.3925 2.45673 10.2961C2.0026 9.19975 1.88378 7.99335 2.11529 6.82946C2.3468 5.66558 2.91825 4.59648 3.75736 3.75736C4.59648 2.91825 5.66558 2.3468 6.82946 2.11529C7.99335 1.88378 9.19975 2.0026 10.2961 2.45673C11.3925 2.91085 12.3295 3.67989 12.9888 4.66658C13.6481 5.65328 14 6.81331 14 8C14 9.5913 13.3679 11.1174 12.2426 12.2426C11.1174 13.3679 9.5913 14 8 14ZM8 2.5C6.91221 2.5 5.84884 2.82257 4.94437 3.42692C4.0399 4.03127 3.33495 4.89025 2.91867 5.89524C2.50238 6.90024 2.39346 8.0061 2.60568 9.073C2.8179 10.1399 3.34173 11.1199 4.11092 11.8891C4.8801 12.6583 5.86011 13.1821 6.92701 13.3943C7.9939 13.6065 9.09977 13.4976 10.1048 13.0813C11.1098 12.6651 11.9687 11.9601 12.5731 11.0556C13.1774 10.1512 13.5 9.0878 13.5 8C13.5 6.54131 12.9205 5.14237 11.8891 4.11092C10.8576 3.07947 9.45869 2.5 8 2.5Z" fill="#565656" stroke="#565656" stroke-width="0.5"/>
<path d="M6.87505 10.125C6.84214 10.1252 6.80953 10.1189 6.77907 10.1065C6.74861 10.094 6.72091 10.0757 6.69755 10.0525L5.19755 8.55255C5.15047 8.50547 5.12402 8.44162 5.12402 8.37505C5.12402 8.30847 5.15047 8.24462 5.19755 8.19755C5.24462 8.15047 5.30847 8.12402 5.37505 8.12402C5.44162 8.12402 5.50547 8.15047 5.55255 8.19755L6.87505 9.52255L10.4475 5.94755C10.4946 5.90047 10.5585 5.87402 10.625 5.87402C10.6916 5.87402 10.7555 5.90047 10.8025 5.94755C10.8496 5.99462 10.8761 6.05847 10.8761 6.12505C10.8761 6.19162 10.8496 6.25547 10.8025 6.30255L7.05255 10.0525C7.02919 10.0757 7.00148 10.094 6.97102 10.1065C6.94056 10.1189 6.90795 10.1252 6.87505 10.125Z" fill="#565656" stroke="#565656" stroke-width="0.5"/>
</svg>
