<svg width="326" height="183" viewBox="0 0 326 183" fill="none" xmlns="http://www.w3.org/2000/svg">
<path fill-rule="evenodd" clip-rule="evenodd" d="M111.702 176.535H192.893C194.804 176.535 196.368 178.098 196.368 180.009C196.368 181.92 194.804 183.484 192.893 183.484H111.702C109.791 183.484 108.228 181.92 108.228 180.009C108.228 178.098 109.791 176.535 111.702 176.535Z" fill="#430D0B"/>
<path fill-rule="evenodd" clip-rule="evenodd" d="M120.564 178.048C116.491 173.976 114.276 170.756 118.879 173.413C123.482 176.071 123.482 176.071 123.482 176.071C123.482 176.071 126.041 170.042 128.429 170.042C130.816 170.042 127.305 176.433 127.305 176.433C127.305 176.433 131.449 174.116 133.906 174.116C136.364 174.116 128.007 178.821 128.007 178.821L120.564 178.048Z" fill="#430D0B"/>
<path fill-rule="evenodd" clip-rule="evenodd" d="M183.556 177.963C179.814 175.702 177.596 173.733 181.472 174.855C185.347 175.977 185.347 175.977 185.347 175.977C185.347 175.977 186.137 171.069 187.897 170.635C189.655 170.201 188.23 175.548 188.23 175.548C188.23 175.548 190.861 173.087 192.672 172.64C194.483 172.194 189.181 177.179 189.181 177.179L183.556 177.963Z" fill="#430D0B"/>
<path fill-rule="evenodd" clip-rule="evenodd" d="M167.646 177.963C163.905 175.702 161.687 173.733 165.562 174.855C169.437 175.977 169.437 175.977 169.437 175.977C169.437 175.977 170.227 171.069 171.987 170.635C173.746 170.201 172.32 175.548 172.32 175.548C172.32 175.548 174.952 173.087 176.763 172.64C178.573 172.194 173.271 177.179 173.271 177.179L167.646 177.963Z" fill="#430D0B"/>
<path fill-rule="evenodd" clip-rule="evenodd" d="M176.605 20.8552C178.679 18.9775 180.408 19.3655 180.932 21.6685C181.455 23.972 177.743 27.2379 175.264 25.6134C172.786 23.9889 176.605 20.8552 176.605 20.8552Z" fill="#F0AB91"/>
<path fill-rule="evenodd" clip-rule="evenodd" d="M177.563 22.1166C178.719 20.0724 180.478 22.0407 179.17 23.6939C178.797 24.1659 178.247 24.478 177.663 24.3227C176.384 23.9825 177.563 22.1166 177.563 22.1166Z" fill="#430D0B"/>
<path fill-rule="evenodd" clip-rule="evenodd" d="M175.697 142.052C170.771 151.305 165.41 161.081 162.554 166.034C162.402 166.298 160.394 168.462 158.959 168.527C157.275 168.604 156.181 166.398 156.804 163.891C159.37 153.577 164.813 132.187 169.738 121.547C172.844 114.839 179.573 115.486 180.766 120.459C182.022 125.695 180.467 133.091 175.697 142.052Z" fill="#DCC5A3"/>
<path fill-rule="evenodd" clip-rule="evenodd" d="M155.27 119.991C152.467 124.888 149.434 133.745 150.017 137.675C150.319 139.707 151.49 140.523 152.995 139.844C156.82 138.121 162.738 125.752 163.613 121.653C164.977 115.267 157.614 115.899 155.27 119.991Z" fill="#3E4157"/>
<path fill-rule="evenodd" clip-rule="evenodd" d="M154.97 125.784L159.085 127.155L158.748 128.177L154.633 126.805L154.97 125.784Z" fill="#EBDBA0"/>
<path fill-rule="evenodd" clip-rule="evenodd" d="M154.056 128.184L158.171 129.556L157.833 130.576L153.718 129.205L154.056 128.184Z" fill="#EBDBA0"/>
<path fill-rule="evenodd" clip-rule="evenodd" d="M153.142 130.584L157.256 131.956L156.919 132.977L152.804 131.605L153.142 130.584Z" fill="#EBDBA0"/>
<path fill-rule="evenodd" clip-rule="evenodd" d="M178.206 15.4901C180.415 16.8707 185.072 15.939 184.382 14.2828C183.692 12.6265 183.692 12.6265 183.692 12.6265C190.568 10.1574 186.264 7.13495 185.141 7.48548C186.497 0.345881 181.308 0.795821 180.38 2.93073C178.489 -1.88998 174.06 0.128084 174.582 2.65503C174.582 2.65503 171.339 1.27497 170.234 4.03508C169.131 6.7957 170.856 8.86604 170.856 8.86604C170.856 8.86604 176.998 10.4521 178.206 15.4901Z" fill="#3E4157"/>
<path fill-rule="evenodd" clip-rule="evenodd" d="M174.632 7.23382C177.649 6.50254 181.124 7.5085 179.661 11.5313C178.198 15.5546 174.632 7.23382 174.632 7.23382Z" fill="#EBDBA0"/>
<path fill-rule="evenodd" clip-rule="evenodd" d="M147.677 110.235C144.775 111.662 142.428 116.298 145.013 120.075C145.222 120.381 145.422 120.668 145.613 120.938C146.423 121.018 147.224 121.094 148.009 121.164C151.461 121.473 156.419 121.692 158.576 121.827C162.871 122.097 164.673 118.45 160.258 115.973C156.728 113.992 151.634 112.229 147.677 110.235Z" fill="#DCC5A3"/>
<path fill-rule="evenodd" clip-rule="evenodd" d="M181.219 124.752C183.602 114.507 186.335 98.1497 179.366 97.3656C172.396 96.5821 170.031 109.649 169.068 121.775C168.105 133.9 179.099 133.504 181.219 124.752Z" fill="#F0AB91"/>
<path fill-rule="evenodd" clip-rule="evenodd" d="M154.285 117.251C159.657 108.208 167.211 93.4442 160.805 90.5882C154.399 87.7323 148.191 99.4717 143.605 110.738C139.019 122.005 149.617 124.953 154.285 117.251Z" fill="#F0AB91"/>
<path fill-rule="evenodd" clip-rule="evenodd" d="M172.239 74.915C177.434 77.1467 178.745 83.6345 176.038 89.186C171.297 98.9099 156.868 113.406 156.75 113.334L145.173 106.253C151.373 95.0172 160.597 69.9144 172.239 74.915Z" fill="#3E4157"/>
<path fill-rule="evenodd" clip-rule="evenodd" d="M177.349 82.2366C177.582 84.472 177.148 86.9082 176.038 89.1866C173.967 93.4329 170.049 98.5892 166.283 103.045C166.061 98.3099 166.911 91.7207 168.745 88.648C170.997 84.8722 170.318 82.7665 174.27 82.1459C175.341 81.9773 176.374 82.0183 177.349 82.2366Z" fill="#430D0B"/>
<path fill-rule="evenodd" clip-rule="evenodd" d="M175.917 75.3792C181.502 74.5024 186.067 79.2959 186.732 85.4367C187.895 96.1917 183.401 116.145 183.262 116.146L169.693 116.318C168.957 103.505 163.4 77.345 175.917 75.3792Z" fill="#3E4157"/>
<path fill-rule="evenodd" clip-rule="evenodd" d="M195.127 57.4283C186.918 51.7605 174.437 42.1811 177.976 38.2141C181.515 34.2477 191.592 41.8111 200.226 49.4375C208.858 57.065 202.187 62.2306 195.127 57.4283Z" fill="#F0AB91"/>
<path fill-rule="evenodd" clip-rule="evenodd" d="M147.641 60.9342C154.759 53.9453 165.416 42.3709 161.25 39.0681C157.084 35.7658 148.45 44.9419 141.25 53.934C134.05 62.9262 141.505 66.8742 147.641 60.9342Z" fill="#F0AB91"/>
<path fill-rule="evenodd" clip-rule="evenodd" d="M167.672 35.5576C166.992 35.3505 167.813 34.7212 167.041 34.7479C161.132 34.9508 151.361 41.9792 147.069 46.226C146.407 46.8819 154.064 55.89 154.866 56.8841C154.866 56.8841 167.821 47.171 170.283 40.4398C171.131 38.1235 169.94 36.2489 167.672 35.5576Z" fill="#EBDBA0"/>
<path fill-rule="evenodd" clip-rule="evenodd" d="M147.479 47.3737C147.726 47.7868 148.064 48.2869 148.459 48.8384C150.585 46.5502 152.97 44.895 152.978 44.8888L151.993 43.478C151.984 43.4852 149.672 45.0892 147.479 47.3737Z" fill="#3E4157"/>
<path fill-rule="evenodd" clip-rule="evenodd" d="M173.763 36.3055C179.447 33.9692 189.996 40.6609 195.28 44.9845C196.001 45.5744 189.227 55.265 188.522 56.3304C188.522 56.3304 174.709 47.8815 171.623 41.4132C170.562 39.186 171.57 37.2074 173.763 36.3055Z" fill="#EBDBA0"/>
<path fill-rule="evenodd" clip-rule="evenodd" d="M195.092 45.9263C194.909 46.3408 194.631 46.8656 194.291 47.46C192.95 46.5607 190.905 45.2226 188.711 43.9174L189.589 42.439C191.737 43.7186 193.735 45.0187 195.092 45.9263Z" fill="#3E4157"/>
<path fill-rule="evenodd" clip-rule="evenodd" d="M167.064 34.7815C166.735 34.9988 166.419 35.234 166.112 35.4882C156.918 43.0905 157.091 66.7349 157.698 83.4099C157.735 84.4092 164.972 86.601 172.242 86.3811C178.873 86.1807 185.531 83.6061 186.774 83.6425C186.774 83.6425 186.776 50.411 178.843 37.6723C176.114 33.2882 170.983 32.1874 167.064 34.7815Z" fill="#EBDBA0"/>
<path fill-rule="evenodd" clip-rule="evenodd" d="M158.358 54.9894C158.285 55.5567 158.219 56.1276 158.157 56.7036C164.858 57.0864 178.794 56.7902 184.655 56.64C184.563 56.0666 184.467 55.4942 184.367 54.9243C178.414 55.076 164.91 55.3563 158.358 54.9894Z" fill="#3E4157"/>
<path fill-rule="evenodd" clip-rule="evenodd" d="M158.033 57.9178C157.979 58.4866 157.929 59.059 157.884 59.634C164.952 60.0271 179.827 59.6847 185.087 59.5448C185.008 58.9734 184.926 58.401 184.84 57.8286C179.435 57.9716 164.932 58.299 158.033 57.9178Z" fill="#3E4157"/>
<path fill-rule="evenodd" clip-rule="evenodd" d="M157.795 60.85C157.755 61.4208 157.72 61.9943 157.688 62.5688C165.194 62.9664 181.057 62.5718 185.458 62.4504C185.391 61.8805 185.32 61.3081 185.247 60.7336C180.631 60.8602 165.107 61.2399 157.795 60.85Z" fill="#3E4157"/>
<path fill-rule="evenodd" clip-rule="evenodd" d="M167.543 23.4375C167.129 28.0732 167.02 34.3611 166.855 36.2193C166.688 38.0918 168.046 41.041 170.349 41.904C172.377 42.6645 175.327 41.8061 175.978 37.1678C176.493 33.5073 176.595 29.3677 176.807 28.4345L167.543 23.4375Z" fill="#F0AB91"/>
<path fill-rule="evenodd" clip-rule="evenodd" d="M167.544 23.4375C167.13 28.0732 167.021 34.3611 166.855 36.2193C166.776 37.112 176.16 39.1552 175.49 27.7237L167.544 23.4375Z" fill="#BF5955"/>
<path fill-rule="evenodd" clip-rule="evenodd" d="M176.416 14.1783C176.674 18.7833 176.853 21.979 176.977 24.1969C177.294 29.8698 177.855 32.9 170.524 34.6613C164.522 36.1039 161.873 33.2618 161.23 31.9294C160.705 30.842 159.626 20.0844 159.261 15.3708C159.154 13.9933 162.309 12.1259 162.356 12.173C162.563 12.3806 174.417 9.16284 176.416 14.1783Z" fill="#F0AB91"/>
<path fill-rule="evenodd" clip-rule="evenodd" d="M179.084 13.8841C176.946 24.7626 177.021 24.7452 177.021 24.7452C177.021 24.7452 174.802 20.4826 174.445 18.2201C174.086 15.9575 174.697 12.459 174.697 12.459C174.697 12.459 177.905 12.8233 179.084 13.8841Z" fill="#3E4157"/>
<path fill-rule="evenodd" clip-rule="evenodd" d="M178.87 14.3152C183.789 3.57195 160.679 2.8873 159.171 15.4805C159.138 15.7475 168.546 10.4886 178.87 14.3152Z" fill="#3E4157"/>
<path fill-rule="evenodd" clip-rule="evenodd" d="M169.127 19.6036H169.127C168.669 19.6569 168.339 20.0756 168.392 20.5332L168.511 21.5551C168.565 22.0127 168.983 22.3438 169.441 22.29C169.899 22.2367 170.23 21.8185 170.176 21.3604L170.057 20.3385C170.004 19.8804 169.585 19.5498 169.127 19.6036Z" fill="#430D0B"/>
<path fill-rule="evenodd" clip-rule="evenodd" d="M162.502 20.3864C162.044 20.4397 161.713 20.8583 161.766 21.316L161.886 22.3378C161.94 22.7959 162.358 23.1265 162.816 23.0732C163.274 23.0194 163.605 22.6012 163.551 22.1431L163.431 21.1212C163.378 20.6631 162.959 20.3325 162.502 20.3864Z" fill="#430D0B"/>
<path fill-rule="evenodd" clip-rule="evenodd" d="M169.439 17.3683C169.439 17.3683 168.655 17.4816 168.18 17.3171C167.851 17.2028 167.617 16.8564 168.098 16.596C168.935 16.1425 171.657 17.4298 169.439 17.3683Z" fill="#430D0B"/>
<path fill-rule="evenodd" clip-rule="evenodd" d="M161.818 18.5561C161.818 18.5561 162.589 18.3875 162.955 18.0703C163.208 17.8504 163.272 17.4502 162.717 17.3774C161.747 17.2519 159.803 19.3858 161.818 18.5561Z" fill="#430D0B"/>
<path fill-rule="evenodd" clip-rule="evenodd" d="M170.283 26.9689C169.852 27.5654 169.129 28.0354 168.469 28.369C167.348 28.9363 165.648 28.8538 165.648 28.8538C170.439 35.0499 173.448 22.5884 170.283 26.9689Z" fill="white"/>
<path fill-rule="evenodd" clip-rule="evenodd" d="M166.531 25.3918C164.664 26.2748 164.311 25.1166 165.21 23.5352C165.394 25.2611 164.907 25.0818 166.531 25.3918Z" fill="#430D0B"/>
<path fill-rule="evenodd" clip-rule="evenodd" d="M138.258 62.3789C138.808 72.3385 142.624 87.8082 145.696 87.0359C148.768 86.2647 149.734 73.5439 147.735 62.1995C145.735 50.8557 137.847 53.8495 138.258 62.3789Z" fill="#F0AB91"/>
<path fill-rule="evenodd" clip-rule="evenodd" d="M224.281 50.5453C226.663 47.7893 231.936 42.698 236.909 41.9887C239.406 41.6326 238.754 42.3726 237.602 43.1428C235.913 44.2712 232.173 46.0479 231.147 48.7035L231.052 48.9479C230.947 49.7423 231.583 50.2004 233.286 50.3413C236.41 50.5991 237.163 51.6963 233.773 52.4404C231.117 53.0225 230.375 53.8327 228.776 54.5881C227.836 55.0334 226.121 55.3404 224.827 55.8928C219.802 58.039 210.499 59.9479 203.732 60.342C195.204 60.7771 192.187 52.8985 203.526 50.8651C211.18 49.4932 218.276 51.1167 224.281 50.5453Z" fill="#F0AB91"/>
<path fill-rule="evenodd" clip-rule="evenodd" d="M148.33 79.9043C148.058 87.5251 147.922 91.88 146.561 93.3764C145.2 94.8738 139.621 95.2822 139.621 95.2822C139.621 95.2822 137.443 91.7437 138.396 91.88C139.349 92.0158 140.709 92.8326 140.709 92.8326C140.709 92.8326 140.709 84.2592 141.662 83.0344C142.615 81.8096 143.567 81.2654 143.567 81.2654L148.33 79.9043Z" fill="#F0AB91"/>
<path fill-rule="evenodd" clip-rule="evenodd" d="M157.428 161.071C156.576 163.007 152.776 168.251 150.473 172.153C148.529 175.449 146.875 182.955 153.451 180.853C158.212 179.332 164.53 166.989 164.657 162.306C164.67 161.83 164.252 162.679 163.502 163.428C161.835 165.092 157.246 165.775 157.428 161.071Z" fill="#3E4157"/>
<path fill-rule="evenodd" clip-rule="evenodd" d="M156.454 164.984L160.256 167.072L159.741 168.016L155.939 165.928L156.454 164.984Z" fill="#EBDBA0"/>
<path fill-rule="evenodd" clip-rule="evenodd" d="M155.125 167.181L158.926 169.269L158.411 170.213L154.609 168.125L155.125 167.181Z" fill="#EBDBA0"/>
<path fill-rule="evenodd" clip-rule="evenodd" d="M153.795 169.378L157.596 171.466L157.081 172.409L153.28 170.322L153.795 169.378Z" fill="#EBDBA0"/>
<path fill-rule="evenodd" clip-rule="evenodd" d="M159.437 47.5359C158.194 50.1284 157.289 52.9844 156.689 55.4554C157.212 55.0347 157.824 54.5325 158.495 53.9662C158.849 51.4495 159.311 49.0461 159.908 46.8231C159.949 46.6683 159.991 46.5146 160.034 46.3613C159.827 46.7452 159.628 47.1372 159.437 47.5359Z" fill="#DCC5A3"/>
<path fill-rule="evenodd" clip-rule="evenodd" d="M185.949 54.6631C185.531 52.9433 184.943 50.9662 184.144 49.0265C183.55 47.5865 182.839 46.167 181.995 44.8884C182.299 45.8442 182.583 46.8358 182.85 47.854C183.315 49.6302 183.725 51.4884 184.086 53.3835C184.759 53.8575 185.389 54.2875 185.949 54.6631Z" fill="#DCC5A3"/>
<path fill-rule="evenodd" clip-rule="evenodd" d="M201.324 50.4783C200.05 50.9041 198.924 51.6708 198.126 52.8392C199.057 52.1925 200.333 51.6236 201.993 51.1967C201.786 50.9605 201.563 50.7207 201.324 50.4783Z" fill="#430D0B"/>
<path fill-rule="evenodd" clip-rule="evenodd" d="M148.44 60.1439C147.821 59.4367 147.217 58.8637 146.673 58.4507C146.992 59.1968 147.273 60.0649 147.504 61.0642C147.549 61.0217 147.595 60.9781 147.64 60.9346C147.902 60.6768 148.169 60.4134 148.44 60.1439Z" fill="#430D0B"/>
<path fill-rule="evenodd" clip-rule="evenodd" d="M168.512 124.791C167.992 127.808 168.801 130.066 170.247 131.45C170.972 132.146 171.86 132.627 172.822 132.877C173.793 133.129 174.838 133.147 175.866 132.914C177.651 132.51 179.386 131.345 180.607 129.33C180.359 130.505 180.031 131.73 179.62 133.002C178.574 133.802 177.42 134.328 176.245 134.594C174.947 134.888 173.623 134.864 172.39 134.543C171.146 134.219 169.995 133.595 169.052 132.692C168.011 131.695 167.227 130.365 166.859 128.734C167.359 127.338 167.86 126.008 168.358 124.764L168.512 124.791Z" fill="#3E4157"/>
<path fill-rule="evenodd" clip-rule="evenodd" d="M144.003 156.036C150.683 156.036 156.131 150.588 156.131 143.908C156.131 137.229 150.683 131.781 144.003 131.781C137.323 131.781 131.876 137.229 131.876 143.908C131.876 150.588 137.324 156.036 144.003 156.036Z" fill="#430D0B"/>
<path fill-rule="evenodd" clip-rule="evenodd" d="M152.379 152.679V151.169V148.756L150.289 147.55L148.2 146.344L146.11 147.55L144.021 148.756V151.169V153.581L146.11 154.787L147.424 155.545C149.306 154.994 150.998 153.998 152.379 152.679Z" fill="#430D0B"/>
<path fill-rule="evenodd" clip-rule="evenodd" d="M140.606 155.553L141.932 154.788L144.022 153.582V151.17V148.757L141.932 147.551L139.843 146.344L137.753 147.551L135.664 148.757V151.17V152.714C137.044 154.022 138.731 155.007 140.606 155.553Z" fill="#430D0B"/>
<path fill-rule="evenodd" clip-rule="evenodd" d="M132.212 146.75L133.557 147.528L135.647 148.734L137.736 147.528L139.825 146.321V143.909V141.497L137.736 140.291L135.647 139.084L133.557 140.291L132.212 141.068C131.993 141.979 131.876 142.93 131.876 143.909C131.876 144.888 131.993 145.839 132.212 146.75Z" fill="#430D0B"/>
<path fill-rule="evenodd" clip-rule="evenodd" d="M155.796 141.067L154.45 140.29L152.361 139.084L150.271 140.29L148.182 141.496V143.909V146.321L150.271 147.528L152.361 148.733L154.45 147.528L155.796 146.75C156.015 145.838 156.131 144.887 156.131 143.908C156.131 142.93 156.015 141.979 155.796 141.067Z" fill="#430D0B"/>
<path fill-rule="evenodd" clip-rule="evenodd" d="M147.446 132.277L146.111 133.048L144.022 134.254V136.667V139.079L146.111 140.286L148.201 141.492L150.29 140.286L152.379 139.079V136.667V135.138C151.003 133.823 149.319 132.831 147.446 132.277Z" fill="#430D0B"/>
<path fill-rule="evenodd" clip-rule="evenodd" d="M135.664 135.103V136.667V139.079L137.753 140.286L139.843 141.491L141.932 140.286L144.022 139.079V136.667V134.254L141.932 133.048L140.585 132.27C138.719 132.818 137.04 133.8 135.664 135.103Z" fill="#430D0B"/>
<path fill-rule="evenodd" clip-rule="evenodd" d="M140.302 132.356C138.664 132.881 137.157 133.752 135.88 134.904V138.955L139.843 141.243L143.806 138.955V134.379L140.302 132.356Z" fill="#DCC5A3"/>
<path fill-rule="evenodd" clip-rule="evenodd" d="M152.163 134.937C150.884 133.774 149.372 132.895 147.728 132.364L144.237 134.379V138.956L148.2 141.243L152.163 138.956V134.937Z" fill="#DCC5A3"/>
<path fill-rule="evenodd" clip-rule="evenodd" d="M155.861 146.464C156.041 145.623 156.131 144.767 156.131 143.908C156.131 143.05 156.041 142.194 155.861 141.355L152.361 139.333L148.398 141.622V146.197L152.361 148.485L155.861 146.464Z" fill="#DCC5A3"/>
<path fill-rule="evenodd" clip-rule="evenodd" d="M132.146 141.354C131.966 142.194 131.876 143.05 131.876 143.908C131.876 144.767 131.966 145.624 132.147 146.464L135.647 148.484L139.609 146.196V141.621L135.647 139.332L132.146 141.354Z" fill="#DCC5A3"/>
<path fill-rule="evenodd" clip-rule="evenodd" d="M135.88 152.913C137.162 154.07 138.677 154.944 140.322 155.467L143.806 153.456V148.881L139.843 146.593L135.88 148.881V152.913Z" fill="#DCC5A3"/>
<path fill-rule="evenodd" clip-rule="evenodd" d="M147.708 155.46C149.36 154.93 150.879 154.048 152.163 152.88V148.881L148.2 146.593L144.237 148.881V153.457L147.708 155.46Z" fill="#DCC5A3"/>
<path fill-rule="evenodd" clip-rule="evenodd" d="M136.654 132.295C136.863 132.182 136.942 131.921 136.829 131.711C136.716 131.501 136.455 131.423 136.245 131.535C134.436 132.513 132.756 134.19 131.517 136.257C130.352 138.196 129.573 140.484 129.436 142.864C129.423 143.101 129.605 143.304 129.843 143.318C130.08 143.331 130.283 143.149 130.297 142.911C130.425 140.678 131.16 138.526 132.256 136.699C133.416 134.765 134.978 133.2 136.654 132.295Z" fill="#3E4157"/>
<path fill-rule="evenodd" clip-rule="evenodd" d="M157.72 141.594C157.649 141.366 157.407 141.24 157.18 141.309C156.952 141.381 156.825 141.622 156.896 141.85C157.358 143.324 157.381 145.121 156.961 146.904C156.564 148.59 155.772 150.261 154.581 151.633C154.426 151.813 154.446 152.085 154.625 152.241C154.805 152.397 155.077 152.377 155.233 152.197C156.518 150.713 157.373 148.914 157.801 147.101C158.256 145.17 158.227 143.213 157.72 141.594Z" fill="#3E4157"/>
<path fill-rule="evenodd" clip-rule="evenodd" d="M320.124 176.535H238.932C237.021 176.535 235.458 178.098 235.458 180.009C235.458 181.92 237.021 183.484 238.932 183.484H320.124C322.035 183.484 323.598 181.92 323.598 180.009C323.598 178.098 322.035 176.535 320.124 176.535Z" fill="#404040"/>
<path fill-rule="evenodd" clip-rule="evenodd" d="M311.261 178.048C315.334 173.976 317.55 170.756 312.947 173.413C308.344 176.071 308.344 176.071 308.344 176.071C308.344 176.071 305.784 170.042 303.397 170.042C301.01 170.042 304.52 176.433 304.52 176.433C304.52 176.433 300.377 174.116 297.919 174.116C295.461 174.116 303.818 178.821 303.818 178.821L311.261 178.048Z" fill="#404040"/>
<path fill-rule="evenodd" clip-rule="evenodd" d="M248.271 177.963C252.012 175.703 254.23 173.733 250.355 174.855C246.48 175.977 246.48 175.977 246.48 175.977C246.48 175.977 245.689 171.07 243.93 170.635C242.171 170.201 243.597 175.548 243.597 175.548C243.597 175.548 240.965 173.088 239.155 172.641C237.344 172.194 242.646 177.179 242.646 177.179L248.271 177.963Z" fill="#404040"/>
<path fill-rule="evenodd" clip-rule="evenodd" d="M282.208 177.963C278.467 175.702 276.249 173.733 280.124 174.855C283.999 175.977 283.999 175.977 283.999 175.977C283.999 175.977 284.789 171.069 286.549 170.635C288.307 170.201 286.882 175.548 286.882 175.548C286.882 175.548 289.513 173.087 291.324 172.64C293.135 172.194 287.833 177.179 287.833 177.179L282.208 177.963Z" fill="#404040"/>
<path fill-rule="evenodd" clip-rule="evenodd" d="M288.229 50.0284C278.95 53.6889 264.042 58.7202 262.719 53.571C261.396 48.4223 273.29 44.2648 284.432 41.3432C295.574 38.4212 296.15 46.8383 288.229 50.0284Z" fill="#D4D4D4"/>
<path fill-rule="evenodd" clip-rule="evenodd" d="M261.616 53.8075C253.468 48.0531 244.459 35.7361 246.746 33.5428C249.03 31.3494 253.816 37.3893 265.43 45.0998C277.045 52.8087 268.626 58.6841 261.616 53.8075Z" fill="#D4D4D4"/>
<path fill-rule="evenodd" clip-rule="evenodd" d="M242.763 24.824C244.363 33.5543 245.515 36.2688 247.976 37.7334C250.436 39.198 252.703 36.3564 252.703 36.3564C252.703 36.3564 252.682 31.0719 253.047 28.8873C253.414 26.7032 253.891 26.5197 253.458 26.2481C253.025 25.9765 251.845 27.086 251.182 28.3994C248.938 32.8378 247.657 24.311 247.57 23.0335C247.286 18.8723 245.831 20.4527 246.082 23.386C246.331 26.3199 246.195 26.1528 246.195 26.1528C246.195 26.1528 245.759 20.4076 244.838 20.4322C243.917 20.4573 244.259 22.4431 244.416 23.9892C244.571 25.5358 244.71 26.4675 244.71 26.4675C244.71 26.4675 244.348 24.8824 243.913 23.7791C243.011 21.4863 242.46 23.5459 242.763 24.824Z" fill="#D4D4D4"/>
<path fill-rule="evenodd" clip-rule="evenodd" d="M270.888 50.9738C271.075 49.3221 270.373 47.7852 269.371 46.4226C268.873 46.6481 268.389 46.8751 267.917 47.1057C269.324 48.3571 270.169 49.832 270.888 50.9738Z" fill="#808080"/>
<path fill-rule="evenodd" clip-rule="evenodd" d="M315.303 133.537C318.101 141.906 320.693 150.644 322.014 155.202C322.349 156.357 318.403 160.182 316.362 157.296C311.409 150.29 297.654 130.008 295.425 121.561C294.335 117.428 299.894 115.961 304.96 118.38C309.435 120.517 312.61 125.49 315.303 133.537Z" fill="#B2B2B2"/>
<path fill-rule="evenodd" clip-rule="evenodd" d="M298.43 128.736C298.117 128.121 297.82 127.522 297.543 126.941C298.441 127.071 299.389 127.028 300.337 126.831C301.664 126.555 302.984 125.976 304.164 125.142C305.805 123.984 307.164 122.336 307.876 120.33C308.334 120.735 308.777 121.179 309.206 121.664C308.318 123.679 306.869 125.344 305.159 126.551C303.789 127.519 302.247 128.191 300.688 128.516C299.935 128.674 299.176 128.749 298.43 128.736Z" fill="#3E4157"/>
<path fill-rule="evenodd" clip-rule="evenodd" d="M305.772 117.903C306.404 107.404 306.357 90.8196 299.354 91.2152C292.352 91.6103 292.211 104.89 293.295 117.005C294.379 129.121 305.15 126.887 305.772 117.903Z" fill="#D4D4D4"/>
<path fill-rule="evenodd" clip-rule="evenodd" d="M255.837 123.649C248.236 133.834 239.76 144.099 239.76 144.099L235.266 142.307C235.266 142.307 247.436 107.766 254.208 99.8233C256.98 96.5707 261.355 100.3 262.257 105.842C263.054 110.737 260.912 116.85 255.837 123.649Z" fill="#B2B2B2"/>
<path fill-rule="evenodd" clip-rule="evenodd" d="M250.678 105.311C251.154 104.436 251.619 103.622 252.072 102.879C252.048 104.586 252.649 105.989 253.641 107.051C254.481 107.95 255.602 108.619 256.865 109.032C258.157 109.454 259.591 109.611 261.029 109.476C261.472 109.435 261.915 109.365 262.354 109.268C262.299 109.856 262.209 110.458 262.085 111.072C261.785 111.122 261.484 111.162 261.185 111.189C259.514 111.346 257.842 111.163 256.334 110.669C254.797 110.167 253.424 109.343 252.382 108.226C251.611 107.402 251.022 106.426 250.678 105.311Z" fill="#3E4157"/>
<path fill-rule="evenodd" clip-rule="evenodd" d="M263.573 107.214C272.805 102.527 286.834 94.2149 282.798 88.3273C278.761 82.4401 267.433 88.9407 257.739 95.925C248.044 102.91 255.631 111.156 263.573 107.214Z" fill="#D4D4D4"/>
<path fill-rule="evenodd" clip-rule="evenodd" d="M297.483 41.6297C296.444 47.686 285.17 53.0683 278.7 55.2478C277.817 55.5456 273.205 44.6573 272.678 43.4951C272.678 43.4951 292.641 34.0766 299.67 34.896C302.12 35.1789 297.884 39.2924 297.483 41.6297Z" fill="#3E4157"/>
<path fill-rule="evenodd" clip-rule="evenodd" d="M303.155 80.8068C306.225 85.5537 303.7 91.6719 298.358 94.7733C289.003 100.206 268.946 104.205 268.888 104.079L263.218 91.7493C274.628 85.8719 296.274 70.1665 303.155 80.8068Z" fill="#3E4157"/>
<path fill-rule="evenodd" clip-rule="evenodd" d="M303.154 80.8066C306.225 85.5535 303.699 91.6718 298.358 94.7732C295.391 96.4966 291.345 98.075 287.203 99.4243C286.899 91.062 287.695 82.5392 291.361 77.819C296.407 76.5742 300.712 77.0288 303.154 80.8066Z" fill="#7F7F7F"/>
<path fill-rule="evenodd" clip-rule="evenodd" d="M295.618 72.1801C301.183 71.1879 308.057 75.407 308.849 81.5324C310.236 92.2613 306.157 112.303 306.019 112.308L292.455 112.76C288.725 99.5126 283.145 74.4052 295.618 72.1801Z" fill="#3E4157"/>
<path fill-rule="evenodd" clip-rule="evenodd" d="M301.521 112.457L299.8 112.515C299.66 109.565 299.398 100.369 300.811 89.2251L302.519 89.4408C301.117 100.497 301.384 109.596 301.521 112.457Z" fill="#3E4157"/>
<path fill-rule="evenodd" clip-rule="evenodd" d="M305.212 112.334L303.49 112.392C303.56 105.934 303.757 89.6234 303.989 86.9812L305.706 87.1303C305.479 89.7306 305.283 105.841 305.212 112.334Z" fill="#3E4157"/>
<path fill-rule="evenodd" clip-rule="evenodd" d="M295.353 35.1135C291.273 37.2346 289.34 48.9305 286.685 60.035C284.555 68.9456 281.491 77.513 281.258 81.4886C281.196 82.552 288.494 87.2594 296.141 89.0023C302.221 90.389 308.821 88.9685 309.972 89.0387C309.972 89.0387 313.573 51.3308 306.852 38.3712C304.539 33.9118 299.645 32.8833 295.353 35.1135Z" fill="#3E4157"/>
<path fill-rule="evenodd" clip-rule="evenodd" d="M283.014 73.4859C282.95 73.716 282.887 73.9435 282.825 74.168C288.056 75.5726 296.711 77.6486 300.552 75.9764C306.402 73.4295 310.902 59.5921 310.407 54.0585L304.055 54.9564C299.861 55.5493 300.168 70.3358 302.356 45.1135C298.295 54.8646 293.298 68.1532 293.298 68.1532L298.103 69.274C294.937 73.4844 287.678 73.7852 283.014 73.4859Z" fill="#2C2C2C"/>
<path fill-rule="evenodd" clip-rule="evenodd" d="M310.904 51.8939C308.333 61.5327 303.518 76.5114 298.591 74.5154C293.664 72.5194 297.39 60.4827 301.663 49.7856C305.936 39.088 313.047 43.6279 310.904 51.8939Z" fill="#D4D4D4"/>
<path fill-rule="evenodd" clip-rule="evenodd" d="M310.199 40.811C314.528 45.5861 310.106 58.5037 308.113 64.8331C307.841 65.6976 298.135 61.3412 296.881 60.9748C296.881 60.9748 299.825 44.9035 304.643 40.0592C305.493 39.2034 304.031 36.0676 305.027 36.2147C305.971 36.3546 309.386 39.9137 310.199 40.811Z" fill="#3E4157"/>
<path fill-rule="evenodd" clip-rule="evenodd" d="M275.66 67.177C270.385 67.525 262.594 68.1246 259.693 69.8772C256.367 71.8865 253.753 74.8977 254.692 75.1125C255.486 75.2928 258.408 72.9453 259.474 72.3483C259.474 72.3483 255.828 75.7664 256.584 76.4587C257.342 77.15 261.299 73.778 261.299 73.778C261.299 73.778 258.819 77.3888 259.538 77.7009C260.258 78.0135 263.284 74.1198 263.284 74.1198C261.809 77.5554 263.41 79.4771 264.288 76.1748C264.46 75.5306 265.002 75.0294 265.858 73.8303C265.858 73.8303 270.056 73.305 271.073 72.7464C271.312 72.6158 271.881 72.3513 272.613 72.0239C276.996 74.2515 288.084 75.9975 295.784 75.9857C304.323 75.9124 306.865 67.8678 295.425 66.5139C288.206 65.6596 280.507 66.0163 275.66 67.177Z" fill="#D4D4D4"/>
<path fill-rule="evenodd" clip-rule="evenodd" d="M238.895 149.078C237.739 149.903 218.206 141.424 217.911 139.71C217.312 136.244 228.365 138.383 235.854 140.774C236.088 140.849 235.889 143.006 239.771 143.087C240.303 143.098 241.267 141.474 241.465 142.37C241.711 143.489 240.341 148.044 238.895 149.078Z" fill="#3E4157"/>
<path fill-rule="evenodd" clip-rule="evenodd" d="M217.871 141.383C217.854 141.424 217.84 141.467 217.83 141.512C217.734 141.941 218.004 142.368 218.433 142.465C218.802 142.548 219.167 142.361 219.325 142.035L221.47 142.996C221.45 143.041 221.436 143.087 221.424 143.136C221.328 143.565 221.598 143.992 222.027 144.089C222.4 144.172 222.77 143.981 222.924 143.649L225.068 144.611C225.047 144.658 225.031 144.708 225.019 144.76C224.922 145.19 225.192 145.617 225.622 145.712C225.997 145.797 226.372 145.601 226.524 145.263L228.668 146.224C228.644 146.275 228.626 146.328 228.613 146.385C228.517 146.815 228.787 147.241 229.217 147.338C229.597 147.423 229.974 147.221 230.123 146.877L232.268 147.838C232.241 147.892 232.222 147.949 232.208 148.01C232.112 148.439 232.382 148.866 232.812 148.962C233.196 149.048 233.577 148.842 233.722 148.49L235.867 149.452C235.839 149.509 235.816 149.57 235.803 149.634C235.706 150.064 235.976 150.49 236.406 150.587C236.793 150.674 237.179 150.462 237.321 150.104C238.405 150.591 238.616 149.623 238.976 148.822L217.876 139.392C217.446 140.347 217.015 140.999 217.871 141.383Z" fill="#434343"/>
<path fill-rule="evenodd" clip-rule="evenodd" d="M233.669 142.551L234.453 140.342C234.113 140.241 233.767 140.141 233.418 140.042L232.657 142.19L233.669 142.551Z" fill="#3E4157"/>
<path fill-rule="evenodd" clip-rule="evenodd" d="M231.215 141.797L231.976 139.649C231.629 139.558 231.28 139.469 230.93 139.382L230.203 141.435L231.215 141.797Z" fill="#3E4157"/>
<path fill-rule="evenodd" clip-rule="evenodd" d="M228.76 141.041L229.471 139.035C229.117 138.955 228.764 138.876 228.413 138.804L227.748 140.68L228.76 141.041Z" fill="#3E4157"/>
<path fill-rule="evenodd" clip-rule="evenodd" d="M325.292 158.428C325.594 159.816 310.081 174.404 308.392 173.998C304.971 173.177 311.306 163.871 316.463 157.937C316.542 157.782 319.482 157.276 320.783 155.994C322.013 154.78 321.056 152.906 321.498 153.05C322.587 153.407 324.916 156.691 325.292 158.428Z" fill="#3E4157"/>
<path fill-rule="evenodd" clip-rule="evenodd" d="M309.912 174.696C309.943 174.727 309.976 174.757 310.014 174.784C310.37 175.043 310.869 174.963 311.127 174.606C311.349 174.3 311.322 173.891 311.085 173.618L312.816 172.027C312.849 172.063 312.887 172.095 312.927 172.124C313.283 172.382 313.782 172.303 314.04 171.947C314.265 171.638 314.235 171.223 313.991 170.949L315.722 169.36C315.757 169.398 315.797 169.433 315.84 169.465C316.196 169.724 316.695 169.644 316.954 169.288C317.18 168.976 317.147 168.554 316.897 168.281L318.628 166.692C318.665 166.733 318.707 166.771 318.754 166.806C319.11 167.065 319.609 166.985 319.867 166.629C320.096 166.314 320.061 165.887 319.802 165.614L321.533 164.025C321.572 164.07 321.616 164.11 321.668 164.147C322.024 164.405 322.522 164.326 322.781 163.969C323.011 163.651 322.972 163.219 322.707 162.946L324.44 161.356C324.48 161.404 324.528 161.449 324.58 161.487C324.937 161.746 325.436 161.667 325.694 161.31C325.927 160.988 325.886 160.552 325.614 160.279C326.489 159.476 325.683 158.899 325.089 158.251L308.086 173.904C308.79 174.676 309.221 175.329 309.912 174.696Z" fill="#434343"/>
<path fill-rule="evenodd" clip-rule="evenodd" d="M317.232 160.647L315.512 159.053C315.285 159.327 315.056 159.604 314.828 159.886L316.5 161.434L317.232 160.647Z" fill="#3E4157"/>
<path fill-rule="evenodd" clip-rule="evenodd" d="M315.567 162.603L313.896 161.055C313.674 161.338 313.455 161.622 313.237 161.909L314.835 163.39L315.567 162.603Z" fill="#3E4157"/>
<path fill-rule="evenodd" clip-rule="evenodd" d="M313.903 164.559L312.341 163.113C312.127 163.406 311.917 163.7 311.71 163.994L313.171 165.346L313.903 164.559Z" fill="#3E4157"/>
<path fill-rule="evenodd" clip-rule="evenodd" d="M299.566 67.4893C298.905 66.51 297.904 65.9012 296.673 65.4441C296.596 65.8597 296.529 66.2661 296.472 66.6627C297.679 66.8641 298.706 67.147 299.566 67.4893Z" fill="#808080"/>
<path fill-rule="evenodd" clip-rule="evenodd" d="M289.986 46.0061C288.694 47.9729 287.265 50.1827 286.023 52.19C286.971 51.7175 287.915 51.2117 288.835 50.6761C289.213 49.0542 289.593 47.4851 289.986 46.0061Z" fill="#2C2C2C"/>
<path fill-rule="evenodd" clip-rule="evenodd" d="M304.872 39.5977C305.391 40.6446 305.74 42.0016 305.841 43.6881C305.98 46.0014 305.661 48.9731 304.678 52.6639C303.19 58.2543 302.052 61.4443 301.516 62.829C300.965 62.6061 300.425 62.3857 299.918 62.1782C300.434 60.8473 301.542 57.7398 303.01 52.2257C303.945 48.7164 304.251 45.9281 304.122 43.7891C304.061 42.7754 303.905 41.9196 303.675 41.2109C303.988 40.7804 304.31 40.3925 304.642 40.0594C304.757 39.9425 304.83 39.7842 304.872 39.5977Z" fill="#3E4157"/>
<path fill-rule="evenodd" clip-rule="evenodd" d="M304.825 36.2437C307.701 38.0993 309.205 40.4084 309.758 43.2121C310.339 46.1582 309.833 49.6004 308.764 53.6171C307.037 60.1028 305.783 63.3579 305.392 64.3106C304.887 64.1348 304.338 63.9329 303.771 63.7166C304.098 62.9326 305.339 59.7804 307.097 53.1799C308.104 49.3949 308.588 46.1905 308.066 43.5436C307.673 41.5456 306.682 39.8375 304.871 38.396C304.754 37.4392 304.495 36.4384 304.825 36.2437Z" fill="#3E4157"/>
<path fill-rule="evenodd" clip-rule="evenodd" d="M299.382 22.6416C298.051 26.9698 296.638 32.9702 296.104 34.7054C295.566 36.4534 294.375 40.3804 296.208 41.8722C297.822 43.1861 302.342 42.5071 303.884 38.2455C305.101 34.8827 306.057 30.9404 306.438 30.1061L299.382 22.6416Z" fill="#D4D4D4"/>
<path fill-rule="evenodd" clip-rule="evenodd" d="M299.382 22.6416C298.132 26.7069 296.809 32.2482 296.21 34.3436C296.563 34.3897 296.932 34.4251 297.318 34.4477C300.723 34.6501 302.815 33.639 304.006 32.694C304.802 32.0622 305.36 30.6918 305.754 29.3845L299.382 22.6416Z" fill="#808080"/>
<path fill-rule="evenodd" clip-rule="evenodd" d="M309.217 21.4732C311.747 20.2797 313.289 21.1545 313.119 23.5108C312.95 25.8666 308.449 27.9113 306.549 25.6359C304.65 23.3606 309.217 21.4732 309.217 21.4732Z" fill="#D4D4D4"/>
<path fill-rule="evenodd" clip-rule="evenodd" d="M310.979 15.0299C309.761 20.0187 308.958 23.3071 308.429 25.4754C308.087 26.8774 307.419 30.0849 306.068 31.158C304.877 32.104 302.784 33.1151 299.38 32.9127C293.219 32.5458 291.484 29.0605 291.283 27.5949C291.082 26.1287 294.754 9.05151 294.754 9.05151C294.754 9.05151 310.525 9.65007 310.979 15.0299Z" fill="#D4D4D4"/>
<path fill-rule="evenodd" clip-rule="evenodd" d="M302.426 18.0995C301.972 18.0175 301.534 18.3219 301.452 18.7755L301.27 19.7881C301.188 20.2416 301.492 20.6793 301.945 20.7618C302.399 20.8438 302.837 20.5394 302.919 20.0858L303.102 19.0732C303.183 18.6202 302.879 18.182 302.426 18.0995Z" fill="#484848"/>
<path fill-rule="evenodd" clip-rule="evenodd" d="M295.859 16.9203C295.405 16.8383 294.968 17.1427 294.886 17.5963L294.703 18.6084C294.621 19.0619 294.925 19.5001 295.379 19.5815C295.832 19.664 296.271 19.3596 296.352 18.9061L296.535 17.8935C296.617 17.4405 296.313 17.0018 295.859 16.9203Z" fill="#484848"/>
<path fill-rule="evenodd" clip-rule="evenodd" d="M303.375 16.0524C303.375 16.0524 302.591 15.9329 302.185 15.6367C301.903 15.4323 301.78 15.0326 302.316 14.9229C303.249 14.7323 305.479 16.7565 303.375 16.0524Z" fill="#484848"/>
<path fill-rule="evenodd" clip-rule="evenodd" d="M295.737 14.9712C295.737 14.9712 296.524 15.0342 296.966 14.8369C297.272 14.7001 297.45 14.3358 296.939 14.1051C296.048 13.7023 293.567 15.1787 295.737 14.9712Z" fill="#484848"/>
<path fill-rule="evenodd" clip-rule="evenodd" d="M302.145 24.2112C302.683 26.2118 298.327 27.6339 296.407 25.9377L296.712 25.9038C299.054 25.8813 300.612 26.3235 302.145 24.2112Z" fill="#484848"/>
<path fill-rule="evenodd" clip-rule="evenodd" d="M298.258 22.8829C295.817 23.2422 296.532 21.2928 297.534 20.7224C297.551 22.27 296.428 21.9211 298.258 22.8829Z" fill="#484848"/>
<path fill-rule="evenodd" clip-rule="evenodd" d="M309.976 22.8133C311.861 21.4143 312.673 23.9259 310.805 24.9072C310.273 25.1865 309.644 25.2496 309.173 24.8709C308.142 24.0412 309.976 22.8133 309.976 22.8133Z" fill="#808080"/>
<path fill-rule="evenodd" clip-rule="evenodd" d="M313.296 17.1002C308.086 26.8862 308.482 25.316 308.482 25.316C308.482 25.316 307.599 20.5926 307.915 18.3235C308.142 16.6897 309.037 14.5892 309.521 13.5412C301.056 9.35131 297.403 12.4778 292.435 10.9379C288.36 9.67467 289.66 4.73968 291.614 4.47217C292.499 4.35123 293.212 4.40197 293.812 4.52035C292.588 3.14388 292.135 1.59266 293.72 1.52245C294.707 1.47889 296.012 2.39927 297.031 3.46416C297.085 1.52399 297.872 -0.0513146 299.09 1.06021C299.541 1.4712 299.819 2.22965 299.958 3.09622C304.826 0.888025 314.175 5.7892 313.299 9.7336C314.301 8.56161 315.392 7.93077 315.51 8.85934C315.662 10.06 314.146 10.5945 314.146 10.5945C314.146 10.5945 316.381 10.8369 316.027 12.0028C315.872 12.5142 315.062 12.483 314.249 12.2324C315.14 13.8753 314.646 15.324 313.278 17.0725C313.285 17.0818 313.291 17.091 313.296 17.1002Z" fill="#1A2037"/>
<path fill-rule="evenodd" clip-rule="evenodd" d="M276.231 24.8876C269.535 24.6744 263.937 29.9292 263.724 36.6235C263.511 43.3177 268.765 48.9179 275.459 49.1306C282.154 49.3432 287.753 44.089 287.966 37.3947C288.18 30.6999 282.925 25.1003 276.231 24.8876Z" fill="#434343"/>
<path fill-rule="evenodd" clip-rule="evenodd" d="M283.938 46.0421L283.986 44.5319L284.062 42.1208L282.013 40.8489L279.963 39.5764L277.836 40.7161L275.71 41.8553L275.633 44.267L275.558 46.6781L277.607 47.95L278.896 48.75C280.793 48.2575 282.516 47.3161 283.938 46.0421Z" fill="#434343"/>
<path fill-rule="evenodd" clip-rule="evenodd" d="M272.08 48.5397L273.43 47.8161L275.557 46.6774L275.633 44.2663L275.71 41.8547L273.659 40.5827L271.61 39.3103L269.483 40.45L267.357 41.5892L267.28 44.0009L267.231 45.5454C268.569 46.8952 270.224 47.9345 272.08 48.5397Z" fill="#434343"/>
<path fill-rule="evenodd" clip-rule="evenodd" d="M263.969 39.4756L265.289 40.2945L267.34 41.5664L269.466 40.4272L271.592 39.2875L271.669 36.8764L271.745 34.4652L269.696 33.1928L267.646 31.9214L265.52 33.0601L264.15 33.7939C263.903 34.6984 263.755 35.6449 263.724 36.6232C263.694 37.6025 263.779 38.5567 263.969 39.4756Z" fill="#434343"/>
<path fill-rule="evenodd" clip-rule="evenodd" d="M287.722 34.5432L286.401 33.7243L284.351 32.4529L282.225 33.5916L280.099 34.7313L280.022 37.1424L279.945 39.5535L281.995 40.826L284.045 42.0979L286.171 40.9587L287.541 40.2249C287.789 39.3204 287.936 38.3733 287.966 37.3945C287.998 36.4163 287.911 35.4615 287.722 34.5432Z" fill="#434343"/>
<path fill-rule="evenodd" clip-rule="evenodd" d="M279.656 25.4934L278.298 26.2211L276.172 27.3608L276.095 29.7719L276.018 32.1831L278.068 33.4555L280.118 34.7274L282.245 33.5887L284.371 32.449L284.448 30.0379L284.496 28.5098C283.162 27.1517 281.511 26.1058 279.656 25.4934Z" fill="#434343"/>
<path fill-rule="evenodd" clip-rule="evenodd" d="M267.791 27.9424L267.741 29.5054L267.665 31.9165L269.715 33.1889L271.765 34.4604L273.89 33.3217L276.017 32.182L276.093 29.7708L276.17 27.3597L274.12 26.0873L272.799 25.2673C270.916 25.7552 269.206 26.6848 267.791 27.9424Z" fill="#434343"/>
<path fill-rule="evenodd" clip-rule="evenodd" d="M272.513 25.3452C270.859 25.8172 269.325 26.6397 268.013 27.7502L267.884 31.7991L271.771 34.2113L275.805 32.0508L275.95 27.4776L272.513 25.3452Z" fill="#B2B2B2"/>
<path fill-rule="evenodd" clip-rule="evenodd" d="M284.286 28.3016C283.045 27.0988 281.562 26.1708 279.935 25.5891L276.383 27.4919L276.237 32.0656L280.125 34.4777L284.158 32.3172L284.286 28.3016Z" fill="#B2B2B2"/>
<path fill-rule="evenodd" clip-rule="evenodd" d="M287.616 39.9394C287.822 39.1061 287.94 38.2529 287.967 37.394C287.994 36.5362 287.931 35.6773 287.778 34.8327L284.345 32.7014L280.312 34.8625L280.166 39.4357L284.054 41.8478L287.616 39.9394Z" fill="#B2B2B2"/>
<path fill-rule="evenodd" clip-rule="evenodd" d="M264.076 34.0793C263.869 34.912 263.751 35.7653 263.724 36.6236C263.696 37.482 263.76 38.3409 263.913 39.1865L267.347 41.3173L271.381 39.1572L271.526 34.5841L267.637 32.1714L264.076 34.0793Z" fill="#B2B2B2"/>
<path fill-rule="evenodd" clip-rule="evenodd" d="M267.44 45.7509C268.685 46.948 270.171 47.8689 271.799 48.4444L275.345 46.5457L275.49 41.9725L271.602 39.5593L267.569 41.7204L267.44 45.7509Z" fill="#B2B2B2"/>
<path fill-rule="evenodd" clip-rule="evenodd" d="M279.181 48.6725C280.849 48.1959 282.396 47.3622 283.715 46.2358L283.843 42.2391L279.955 39.8259L275.922 41.987L275.776 46.5597L279.181 48.6725Z" fill="#B2B2B2"/>
<path fill-rule="evenodd" clip-rule="evenodd" d="M269.188 25.4995C269.397 25.3867 269.476 25.1254 269.363 24.9153C269.251 24.7057 268.989 24.6273 268.779 24.74C266.97 25.7183 265.29 27.3951 264.051 29.4608C262.887 31.401 262.107 33.6891 261.97 36.0674C261.958 36.3047 262.139 36.5081 262.377 36.521C262.614 36.5343 262.817 36.3524 262.831 36.1146C262.96 33.8818 263.694 31.73 264.79 29.903C265.951 27.97 267.514 26.405 269.188 25.4995Z" fill="#3E4157"/>
<path fill-rule="evenodd" clip-rule="evenodd" d="M8.92858 176.535H90.1197C92.0307 176.535 93.5942 178.098 93.5942 180.009C93.5942 181.92 92.0302 183.484 90.1197 183.484H8.92858C7.01762 183.484 5.4541 181.92 5.4541 180.009C5.4541 178.098 7.0171 176.535 8.92858 176.535Z" fill="#404040"/>
<path fill-rule="evenodd" clip-rule="evenodd" d="M17.7913 178.048C13.7183 173.976 11.5029 170.756 16.1058 173.413C20.7088 176.071 20.7088 176.071 20.7088 176.071C20.7088 176.071 23.268 170.042 25.6555 170.042C28.0431 170.042 24.5322 176.433 24.5322 176.433C24.5322 176.433 28.6755 174.116 31.1327 174.116C33.5905 174.116 25.2343 178.821 25.2343 178.821L17.7913 178.048Z" fill="#404040"/>
<path fill-rule="evenodd" clip-rule="evenodd" d="M80.7812 177.963C77.0402 175.703 74.8223 173.733 78.6975 174.855C82.5722 175.977 82.5722 175.977 82.5722 175.977C82.5722 175.977 83.3625 171.07 85.1217 170.635C86.881 170.201 85.4548 175.548 85.4548 175.548C85.4548 175.548 88.0863 173.088 89.8974 172.641C91.7084 172.194 86.406 177.179 86.406 177.179L80.7812 177.963Z" fill="#404040"/>
<path fill-rule="evenodd" clip-rule="evenodd" d="M64.8717 177.963C61.1312 175.703 58.9133 173.733 62.788 174.855C66.6632 175.977 66.6632 175.977 66.6632 175.977C66.6632 175.977 67.4534 171.07 69.2127 170.635C70.972 170.201 69.5458 175.548 69.5458 175.548C69.5458 175.548 72.1778 173.088 73.9888 172.641C75.7999 172.194 70.498 177.179 70.498 177.179L64.8717 177.963Z" fill="#404040"/>
<path fill-rule="evenodd" clip-rule="evenodd" d="M78.9608 78.0734C85.6408 78.0734 91.0892 72.6254 91.0892 65.9455C91.0892 59.2661 85.6413 53.8181 78.9608 53.8181C72.2814 53.8181 66.834 59.2661 66.834 65.9455C66.834 72.6254 72.2814 78.0734 78.9608 78.0734Z" fill="#1A2037"/>
<path fill-rule="evenodd" clip-rule="evenodd" d="M87.3367 74.7164V73.2062V70.794L85.2474 69.5877L83.1576 68.3813L81.0683 69.5877L78.979 70.794V73.2062V75.6188L81.0683 76.8257L82.3817 77.5836C84.264 77.0312 85.9556 76.0355 87.3367 74.7164Z" fill="#1A2037"/>
<path fill-rule="evenodd" clip-rule="evenodd" d="M75.5637 77.5903L76.89 76.8252L78.9793 75.6183V73.2057V70.7935L76.89 69.5872L74.8007 68.3809L72.7114 69.5872L70.6221 70.7935V73.2057V74.7507C72.0021 76.0585 73.6891 77.0445 75.5637 77.5903Z" fill="#1A2037"/>
<path fill-rule="evenodd" clip-rule="evenodd" d="M67.1691 68.7875L68.5143 69.5649L70.6036 70.7713L72.6929 69.5649L74.7822 68.3586V65.9459V63.5338L72.6929 62.3269L70.6036 61.1206L68.5143 62.3269L67.1691 63.1043C66.9503 64.0155 66.834 64.9671 66.834 65.9454C66.834 66.9247 66.9503 67.8764 67.1691 68.7875Z" fill="#1A2037"/>
<path fill-rule="evenodd" clip-rule="evenodd" d="M90.7533 63.1043L89.4076 62.3269L87.3183 61.1206L85.229 62.3269L83.1396 63.5338V65.9459V68.3586L85.229 69.5649L87.3183 70.7713L89.4076 69.5649L90.7528 68.7875C90.9716 67.8764 91.0884 66.9247 91.0884 65.9454C91.0889 64.9671 90.9721 64.0155 90.7533 63.1043Z" fill="#1A2037"/>
<path fill-rule="evenodd" clip-rule="evenodd" d="M82.4038 54.3147L81.0688 55.0854L78.9795 56.2913V58.7039V61.1166L81.0688 62.3229L83.1581 63.5287L85.2479 62.3229L87.3372 61.1166V58.7039V57.1747C85.9613 55.8608 84.2763 54.8676 82.4038 54.3147Z" fill="#1A2037"/>
<path fill-rule="evenodd" clip-rule="evenodd" d="M70.623 57.1405V58.704V61.1167L72.7123 62.323L74.8016 63.5288L76.8909 62.323L78.9802 61.1167V58.704V56.2914L76.8909 55.0855L75.5442 54.3076C73.6773 54.8549 71.9975 55.8378 70.623 57.1405Z" fill="#1A2037"/>
<path fill-rule="evenodd" clip-rule="evenodd" d="M75.2599 54.3928C73.6216 54.9171 72.1149 55.7888 70.8379 56.9403V60.9913L74.8002 63.2789L78.7631 60.9913V56.4155L75.2599 54.3928Z" fill="#54432A"/>
<path fill-rule="evenodd" clip-rule="evenodd" d="M87.1205 56.9744C85.8425 55.8112 84.3307 54.9313 82.6857 54.4014L79.1948 56.4158V60.9916L83.1572 63.2792L87.12 60.9916V56.9744H87.1205Z" fill="#54432A"/>
<path fill-rule="evenodd" clip-rule="evenodd" d="M90.8184 68.5007C90.9988 67.6608 91.0885 66.8045 91.0885 65.9456C91.0885 65.0872 90.9988 64.2309 90.8184 63.391L87.3183 61.3708L83.356 63.6585V68.2337L87.3183 70.5213L90.8184 68.5007Z" fill="#54432A"/>
<path fill-rule="evenodd" clip-rule="evenodd" d="M67.1035 63.391C66.9237 64.2309 66.834 65.0872 66.834 65.9456C66.834 66.8045 66.9242 67.6613 67.1035 68.5007L70.6042 70.5213L74.567 68.2337V63.6585L70.6042 61.3708L67.1035 63.391Z" fill="#54432A"/>
<path fill-rule="evenodd" clip-rule="evenodd" d="M70.8379 74.9503C72.1201 76.1074 73.6344 76.9802 75.2804 77.5039L78.7636 75.4935V70.9178L74.8007 68.6301L70.8384 70.9178L70.8379 74.9503Z" fill="#54432A"/>
<path fill-rule="evenodd" clip-rule="evenodd" d="M82.6652 77.4972C84.3179 76.9673 85.8368 76.0849 87.1205 74.9165V70.9178L83.1577 68.6301L79.1953 70.9178V75.4935L82.6652 77.4972Z" fill="#54432A"/>
<path fill-rule="evenodd" clip-rule="evenodd" d="M86.3492 54.3928C86.1391 54.28 86.0607 54.0187 86.1739 53.8086C86.2862 53.599 86.548 53.5206 86.7576 53.6333C88.5671 54.6116 90.247 56.2884 91.4861 58.3541C92.6499 60.2943 93.4293 62.5824 93.5672 64.9612C93.58 65.1985 93.3981 65.4025 93.1603 65.4158C92.9225 65.4286 92.7196 65.2467 92.7063 65.0089C92.5776 62.7761 91.8433 60.6238 90.7466 58.7969C89.5864 56.8634 88.0244 55.2983 86.3492 54.3928Z" fill="#3E4157"/>
<path fill-rule="evenodd" clip-rule="evenodd" d="M65.2834 63.6919C65.3547 63.4649 65.5966 63.3378 65.8241 63.4085C66.0511 63.4792 66.1777 63.7211 66.107 63.9481C65.6452 65.423 65.6227 67.2186 66.0429 69.0035C66.4401 70.6895 67.2318 72.3591 68.4218 73.732C68.5775 73.9119 68.5581 74.1835 68.3777 74.3393C68.1983 74.495 67.9262 74.4751 67.7709 74.2957C66.4847 72.8116 65.6299 71.0124 65.203 69.1993C64.7479 67.2678 64.7766 65.3118 65.2834 63.6919Z" fill="#3E4157"/>
<path fill-rule="evenodd" clip-rule="evenodd" d="M68.7504 103.752C67.8361 116.426 67.5317 129.736 67.5317 129.736L71.7375 130.497C71.7375 130.497 85.4965 97.2357 85.5709 86.7984C85.6021 82.5245 79.8533 82.4819 75.5456 86.083C71.7411 89.2654 69.3607 95.2898 68.7504 103.752Z" fill="#757575"/>
<path fill-rule="evenodd" clip-rule="evenodd" d="M77.7925 80.5116C67.2865 80.0083 50.7043 80.261 51.186 87.2576C51.6678 94.2542 64.9477 94.2317 77.0489 92.9992C89.1496 91.7652 86.7836 81.022 77.7925 80.5116Z" fill="#D4D4D4"/>
<path fill-rule="evenodd" clip-rule="evenodd" d="M30.3487 88.1961C30.1924 88.9514 31.2952 89.6561 31.2752 90.3125C30.9395 101.185 47.2409 99.0013 55.9502 98.2536C65.1852 97.4619 69.269 95.8763 69.269 95.8763L68.7509 80.1187C57.157 79.1537 33.3261 73.8052 30.3487 88.1961Z" fill="#A8A8A8"/>
<path fill-rule="evenodd" clip-rule="evenodd" d="M31.3084 87.4186C28.5652 100.676 49.0621 98.9305 52.6586 98.6194C56.2545 98.3089 57.5121 98.1449 57.9892 97.9655C53.5584 88.1345 46.8216 77.7674 37.0383 80.9232C35.8622 81.3029 34.7886 81.7185 33.8267 82.1766C32.1156 83.6315 31.8486 84.8112 31.3084 87.4186Z" fill="#1C1C1C"/>
<path fill-rule="evenodd" clip-rule="evenodd" d="M12.7686 19.395C11.488 23.8754 12.9516 28.4471 15.6025 32.2869C15.8393 32.6292 19.0796 36.8201 16.4947 36.9272C15.4303 36.9718 17.5412 38.4493 18.9632 36.5157C18.9632 36.5157 24.3805 27.4185 24.198 26.4126C24.0151 25.4066 22.2778 18.5489 22.2778 18.5489C22.2778 18.5489 16.7919 13.1547 12.7686 19.395Z" fill="#1A2037"/>
<path fill-rule="evenodd" clip-rule="evenodd" d="M17.4146 28.2122C14.9764 26.8409 13.3765 27.6029 13.3765 29.9644C13.3765 32.3268 17.7196 34.6882 19.7766 32.5554C21.8336 30.422 17.4146 28.2122 17.4146 28.2122Z" fill="#D4D4D4"/>
<path fill-rule="evenodd" clip-rule="evenodd" d="M35.8349 139.757C34.9206 154.936 34.6157 170.874 34.6157 170.874L39.1874 172.771C39.1874 172.771 52.58 131.956 52.6548 119.456C52.6861 114.338 46.9373 114.287 42.6296 118.6C38.8246 122.409 36.4452 129.624 35.8349 139.757Z" fill="#757575"/>
<path fill-rule="evenodd" clip-rule="evenodd" d="M52.9063 117.24C51.9706 106.768 49.5128 90.3888 43.0158 91.8544C36.5183 93.3206 38.3186 106.464 41.0956 118.269C43.8732 130.074 53.6314 126.213 52.9063 117.24Z" fill="#D4D4D4"/>
<path fill-rule="evenodd" clip-rule="evenodd" d="M16.5798 29.3332C14.7057 27.9193 13.8755 30.4247 15.7347 31.4204C16.2646 31.7043 16.8934 31.7714 17.3669 31.3968C18.4046 30.5748 16.5798 29.3332 16.5798 29.3332Z" fill="#7A7A7A"/>
<path fill-rule="evenodd" clip-rule="evenodd" d="M41.7726 78.4953C34.857 77.7876 30.4344 79.4393 29.7503 85.0348C29.3931 87.9553 29.6406 89.1032 30.5016 91.9428C32.8261 99.6087 37.3737 109.045 40.0415 115.473L53.5689 114.488C53.3957 103.302 56.3859 79.9912 41.7726 78.4953Z" fill="#A8A8A8"/>
<path fill-rule="evenodd" clip-rule="evenodd" d="M34.1276 91.1892C35.9212 95.1167 42.0154 112.667 42.9148 115.264L41.1391 115.393C39.86 111.708 34.2485 95.5994 32.5615 91.9046L34.1276 91.1892Z" fill="#3E4157"/>
<path fill-rule="evenodd" clip-rule="evenodd" d="M38.3999 54.9686C48.1669 56.999 63.7129 59.4234 64.1408 54.1241C64.5702 48.8252 52.1425 46.7503 40.6655 45.7643C29.1889 44.7783 30.0524 53.1709 38.3999 54.9686Z" fill="#D4D4D4"/>
<path fill-rule="evenodd" clip-rule="evenodd" d="M10.5756 51.5469C4.93703 59.7755 -3.29154 73.1856 1.43231 75.6239C6.15669 78.0621 12.8617 67.3948 18.1949 57.185C23.5286 46.9753 15.4522 44.5365 10.5756 51.5469Z" fill="#D4D4D4"/>
<path fill-rule="evenodd" clip-rule="evenodd" d="M2.14436 78.7113C8.63057 86.2906 21.0567 96.2621 23.0287 93.7838C25.0006 91.3051 18.0434 80.6121 9.56479 72.814C1.08665 65.0164 -3.36151 72.1846 2.14436 78.7113Z" fill="#D4D4D4"/>
<path fill-rule="evenodd" clip-rule="evenodd" d="M26.3495 48.2174C28.1631 54.0882 40.0383 57.9685 46.7346 59.2933C47.6499 59.4741 50.8143 48.0816 51.1874 46.861C51.1874 46.861 35.8807 41.5811 28.9266 43.3168C26.534 43.9143 25.6495 45.9513 26.3495 48.2174Z" fill="#3E4157"/>
<path fill-rule="evenodd" clip-rule="evenodd" d="M18.2428 46.2751C12.0036 53.7642 26.9879 81.9961 30.1027 92.9581C30.6223 94.7866 51.0054 79.3395 53.3786 78.2721C53.3786 78.2721 41.22 51.9767 29.2187 43.6461C25.0882 40.7789 20.7769 42.159 18.2428 46.2751Z" fill="#3E4157"/>
<path fill-rule="evenodd" clip-rule="evenodd" d="M19.8675 45.0529C13.7246 45.2066 6.77053 55.5855 3.67937 61.672C3.2571 62.5037 13.3649 68.6389 14.4395 69.3286C14.4395 69.3286 23.671 56.0262 23.8857 48.863C23.959 46.3971 22.2381 44.9929 19.8675 45.0529Z" fill="#3E4157"/>
<path fill-rule="evenodd" clip-rule="evenodd" d="M18.1763 32.2502C18.801 36.8624 19.1961 39.7824 19.4467 41.6313C19.5702 42.5425 19.7188 43.4987 20.1047 44.3448C20.1872 44.5242 26.9865 51.7048 29.4156 49.3188C30.2503 48.4993 28.5326 44.454 28.5459 42.6317C28.5664 39.703 28.3179 36.499 28.3179 35.0703L18.1763 32.2502Z" fill="#D4D4D4"/>
<path fill-rule="evenodd" clip-rule="evenodd" d="M28.5459 42.1899C28.5413 39.3862 28.3168 36.4262 28.3168 35.0692L19.9878 32.7534L20.2245 37.3999C20.2245 37.3999 21.3786 41.2946 27.4994 42.0889C27.8617 42.1366 28.2102 42.1694 28.5459 42.1899Z" fill="#7A7A7A"/>
<path fill-rule="evenodd" clip-rule="evenodd" d="M34.0204 31.3025C34.1096 31.0842 34.2772 30.9007 34.5247 30.8151C33.9092 25.2329 32.729 16.8593 32.729 16.8593C32.729 16.8593 16.957 16.3258 16.1187 21.6595C18.6333 36.5173 18.6333 36.5173 18.6333 36.5173C18.6333 36.5173 20.2332 40.2506 26.4053 40.3269C30.6264 40.3792 32.8869 38.8275 33.9917 37.3777C34.0051 35.6502 34.0691 33.913 33.7186 32.2116C33.6376 31.8211 33.7826 31.507 34.0204 31.3025Z" fill="#D4D4D4"/>
<path fill-rule="evenodd" clip-rule="evenodd" d="M13.4517 21.964C17.9475 32.0979 17.8711 32.0979 17.8711 32.0979C17.8711 32.0979 19.0903 27.4499 18.9381 25.1638C18.7859 22.8782 17.414 19.6016 17.414 19.6016C17.414 19.6016 14.3659 20.6685 13.4517 21.964Z" fill="#1A2037"/>
<path fill-rule="evenodd" clip-rule="evenodd" d="M24.4296 25.3345C24.8883 25.2848 25.3034 25.6194 25.3526 26.0786L25.4622 27.1014C25.5119 27.5596 25.1768 27.9752 24.7187 28.0239C24.26 28.0736 23.8449 27.7389 23.7952 27.2798L23.686 26.2574C23.6363 25.7988 23.971 25.3832 24.4296 25.3345Z" fill="#1A2037"/>
<path fill-rule="evenodd" clip-rule="evenodd" d="M31.0638 24.6291C31.5225 24.5799 31.9376 24.9145 31.9868 25.3732L32.0964 26.3955C32.1456 26.8542 31.811 27.2693 31.3523 27.3185C30.8942 27.3677 30.4786 27.0335 30.4299 26.5749L30.3202 25.552C30.271 25.0934 30.6052 24.6778 31.0638 24.6291Z" fill="#1A2037"/>
<path fill-rule="evenodd" clip-rule="evenodd" d="M23.63 23.2232C23.63 23.2232 24.4197 23.1602 24.8466 22.8942C25.1418 22.7102 25.2929 22.3203 24.7671 22.1732C23.8493 21.9164 21.4813 23.7751 23.63 23.2232Z" fill="#1A2037"/>
<path fill-rule="evenodd" clip-rule="evenodd" d="M31.3253 22.6932C31.3253 22.6932 30.5356 22.6994 30.1087 22.4708C29.813 22.3125 29.6614 21.9363 30.1877 21.7426C31.1055 21.4049 33.4736 23.0556 31.3253 22.6932Z" fill="#1A2037"/>
<path fill-rule="evenodd" clip-rule="evenodd" d="M24.8688 32.4615C26.3293 33.8769 27.9282 34.1254 29.872 33.5833C27.3835 38.9436 23.4196 37.481 24.1247 32.2826C24.199 31.7317 24.3902 31.9972 24.8688 32.4615Z" fill="#1A2037"/>
<path fill-rule="evenodd" clip-rule="evenodd" d="M27.6899 36.4688C26.0752 37.5788 24.5116 36.7465 24.1304 34.5404C25.1486 34.1053 26.5061 34.6624 27.6899 36.4688Z" fill="#BDBDBD"/>
<path fill-rule="evenodd" clip-rule="evenodd" d="M66.7156 52.2777C69.5808 46.5981 72.4127 38.3157 73.2987 32.835C74.2206 31.9817 76.1593 28.4386 76.1593 28.4386C78.0256 27.9733 86.2322 25.8916 77.3753 26.1504C77.3753 26.1504 82.1089 24.7663 82.0823 23.9827C82.0561 23.1987 77.7868 24.1785 77.7868 24.1785C77.7868 24.1785 82.3774 21.7366 82.0121 20.7788C81.6472 19.821 77.1273 21.957 77.1273 21.957C78.0748 21.1826 81.3325 19.3286 81.4555 18.524C81.6016 17.5713 77.8396 18.8966 74.749 21.2508C70.2716 24.6628 60.2489 42.645 58.4143 47.7035C54.4868 58.5328 62.8158 59.8739 66.7156 52.2777Z" fill="#D4D4D4"/>
<path fill-rule="evenodd" clip-rule="evenodd" d="M28.2441 30.4034C29.759 29.7413 29.3239 30.0247 29.1204 28.3008C30.3478 29.6434 30.2612 30.8503 28.2441 30.4034Z" fill="#7A7A7A"/>
<path fill-rule="evenodd" clip-rule="evenodd" d="M19.8786 84.7705C23.0702 88.6601 29.3863 96.1056 30.1985 99.905C31.0108 103.704 30.6059 107.672 29.8065 107.134C29.1311 106.679 28.8426 102.942 28.5464 101.755C28.5464 101.755 28.552 106.755 27.5296 106.677C26.5078 106.598 26.2557 101.405 26.2557 101.405C26.2557 101.405 25.322 105.685 24.6014 105.374C23.8814 105.063 24.6471 100.192 24.6471 100.192C23.1527 103.619 20.6555 103.767 22.4619 100.866C22.814 100.301 22.8083 99.5622 23.0953 98.117C23.0953 98.117 20.6043 94.6979 20.3147 93.5735C20.0257 92.4502 17.3701 85.2609 17.3701 85.2609L19.8786 84.7705Z" fill="#D4D4D4"/>
<path fill-rule="evenodd" clip-rule="evenodd" d="M16.7927 19.6459C18.8041 22.4804 19.6727 21.8859 18.8953 20.9261C18.1184 19.9662 18.1184 19.9662 18.1184 19.9662C18.1184 19.9662 21.7759 21.3376 24.29 20.7436C26.8046 20.1492 22.8269 19.6014 22.4615 19.6014C22.1136 19.6014 35.4883 19.7823 36.1304 15.6692C36.1304 15.6692 35.3079 16.6752 31.7422 13.8413C19.7019 4.27008 3.70703 21.6148 16.7927 19.6459Z" fill="#1A2037"/>
<path fill-rule="evenodd" clip-rule="evenodd" d="M26.5059 11.8967C24.5319 13.8435 20.485 15.593 16.8906 16.4155C16.6216 16.477 16.3546 16.5334 16.0912 16.5841C14.6138 16.8701 13.2496 16.9818 12.1878 16.8655C12.0879 17.0812 12.0125 17.2908 11.9644 17.4938C12.4163 17.5599 12.8893 17.6301 13.3854 17.7028C13.617 17.7367 13.8482 17.7669 14.0767 17.7935C16.5693 18.0831 18.8882 17.9376 20.977 17.5471C25.7613 16.6528 29.3362 14.4723 31.0007 13.288C29.6955 12.3779 28.3523 11.7665 27.0117 11.396C26.8523 11.5538 26.6843 11.7204 26.5059 11.8967Z" fill="#3E4157"/>
<path fill-rule="evenodd" clip-rule="evenodd" d="M34.0482 175.374C34.7841 176.59 56.0778 176.518 57.0264 175.062C58.9461 172.114 47.9466 169.712 40.1229 168.948C39.879 168.924 39.2087 170.985 35.6112 169.526C35.1182 169.325 34.8748 167.453 34.3387 168.197C33.6695 169.129 33.1278 173.854 34.0482 175.374Z" fill="#3E4157"/>
<path fill-rule="evenodd" clip-rule="evenodd" d="M56.4019 176.613C56.4009 176.658 56.3968 176.703 56.3881 176.749C56.3071 177.181 55.8905 177.466 55.458 177.385C55.087 177.315 54.8246 176.999 54.8087 176.638L52.458 176.674C52.458 176.722 52.4539 176.771 52.4447 176.82C52.3638 177.253 51.9471 177.538 51.5141 177.457C51.139 177.387 50.8756 177.064 50.8643 176.698L48.5147 176.734C48.5152 176.786 48.5116 176.839 48.5013 176.893C48.4204 177.326 48.0037 177.61 47.5707 177.529C47.192 177.458 46.9266 177.13 46.9209 176.759L44.5713 176.795C44.5723 176.851 44.5687 176.908 44.558 176.964C44.477 177.397 44.0609 177.681 43.6278 177.601C43.245 177.529 42.978 177.195 42.9775 176.819L40.6279 176.856C40.6305 176.915 40.6264 176.975 40.6151 177.037C40.5336 177.469 40.1175 177.755 39.685 177.673C39.2981 177.6 39.0295 177.26 39.0347 176.88L36.684 176.916C36.6876 176.979 36.684 177.043 36.6717 177.108C36.5907 177.541 36.1741 177.825 35.7416 177.745C35.3511 177.672 35.0805 177.325 35.0913 176.94C33.9029 176.959 34.091 175.986 34.0771 175.108L57.1865 174.785C57.2019 175.829 57.3397 176.599 56.4019 176.613Z" fill="#1A2037"/>
<path fill-rule="evenodd" clip-rule="evenodd" d="M41.4268 171.444L41.5805 169.105C41.9325 169.147 42.2897 169.191 42.649 169.238L42.4998 171.513L41.4268 171.444Z" fill="#A8A8A8"/>
<path fill-rule="evenodd" clip-rule="evenodd" d="M43.9805 171.721L44.1301 169.447C44.4847 169.5 44.8409 169.555 45.196 169.614L45.0536 171.788L43.9805 171.721Z" fill="#A8A8A8"/>
<path fill-rule="evenodd" clip-rule="evenodd" d="M46.5337 171.997L46.6731 169.873C47.0303 169.939 47.3849 170.007 47.737 170.078L47.6068 172.064L46.5337 171.997Z" fill="#A8A8A8"/>
<path fill-rule="evenodd" clip-rule="evenodd" d="M64.2935 129.186C64.0859 130.591 80.54 144.108 82.1993 143.589C85.5575 142.541 78.6126 133.68 73.0704 128.106C72.9817 127.955 70.0146 127.648 68.6309 126.455C67.3221 125.327 68.1513 123.392 67.7203 123.566C66.6569 123.996 64.5533 127.429 64.2935 129.186Z" fill="#3E4157"/>
<path fill-rule="evenodd" clip-rule="evenodd" d="M80.7293 144.387C80.7007 144.421 80.6684 144.453 80.6325 144.483C80.2943 144.765 79.7915 144.719 79.5102 144.381C79.2688 144.091 79.2678 143.68 79.4861 143.391L77.652 141.921C77.6208 141.958 77.5864 141.994 77.548 142.025C77.2098 142.307 76.7076 142.261 76.4252 141.923C76.1813 141.629 76.1828 141.213 76.4078 140.924L74.5742 139.454C74.5414 139.495 74.5045 139.533 74.463 139.568C74.1248 139.85 73.622 139.803 73.3407 139.466C73.0942 139.169 73.0983 138.748 73.3299 138.458L71.4964 136.988C71.462 137.032 71.4226 137.073 71.378 137.109C71.0403 137.392 70.537 137.346 70.2552 137.007C70.0061 136.709 70.0128 136.281 70.2521 135.991L68.4185 134.522C68.3826 134.569 68.3411 134.613 68.2935 134.652C67.9547 134.934 67.452 134.888 67.1707 134.55C66.9191 134.248 66.9283 133.815 67.1753 133.524L65.3407 132.055C65.3033 132.105 65.2592 132.152 65.2085 132.194C64.8697 132.477 64.3675 132.431 64.0862 132.092C63.8315 131.787 63.8438 131.348 64.0975 131.058C63.1704 130.314 63.935 129.685 64.4844 129L82.4984 143.479C81.8455 144.294 81.4611 144.974 80.7293 144.387Z" fill="#1A2037"/>
<path fill-rule="evenodd" clip-rule="evenodd" d="M72.4844 130.861L74.094 129.156C74.339 129.413 74.5855 129.675 74.8325 129.941L73.2684 131.597L72.4844 130.861Z" fill="#A8A8A8"/>
<path fill-rule="evenodd" clip-rule="evenodd" d="M74.2759 132.701L75.8399 131.045C76.0797 131.312 76.3185 131.582 76.5553 131.854L75.0594 133.438L74.2759 132.701Z" fill="#A8A8A8"/>
<path fill-rule="evenodd" clip-rule="evenodd" d="M76.0674 134.542L77.5289 132.994C77.7616 133.272 77.9917 133.551 78.2177 133.831L76.8514 135.278L76.0674 134.542Z" fill="#A8A8A8"/>
<path fill-rule="evenodd" clip-rule="evenodd" d="M56.7527 48.2939C56.4467 50.1614 56.7445 51.752 57.3902 52.9435C57.3563 51.7792 57.5618 50.3668 58.0763 48.7039C57.6515 48.562 57.2093 48.4251 56.7527 48.2939Z" fill="#7A7A7A"/>
<path fill-rule="evenodd" clip-rule="evenodd" d="M9.88272 70.774C8.9029 70.4301 7.64942 70.3163 6.43848 70.4762C7.16976 70.8893 7.94972 71.4304 8.77171 72.1171C9.14017 71.6964 9.51119 71.2475 9.88272 70.774Z" fill="#7A7A7A"/>
<path fill-rule="evenodd" clip-rule="evenodd" d="M42.8133 55.8279C40.1244 52.293 37.5565 49.9572 34.0625 47.9001C36.1441 50.0802 38.1786 52.6322 40.0998 55.3139C40.7691 56.2476 41.4235 57.1972 42.062 58.1524C43.0844 58.4471 44.075 58.7028 45.004 58.9201C44.2523 57.7922 43.5287 56.7672 42.8133 55.8279Z" fill="#2E354B"/>
<path fill-rule="evenodd" clip-rule="evenodd" d="M24.0581 32.9396C25.0441 34.0875 27.2712 35.1227 29.277 34.6953C29.482 34.3637 29.6813 33.9932 29.8715 33.5833C27.9277 34.126 26.3288 33.8769 24.8683 32.4615C24.3897 31.9972 24.1985 31.7317 24.1237 32.2826C24.094 32.5091 24.0719 32.7285 24.0581 32.9396Z" fill="white"/>
<path fill-rule="evenodd" clip-rule="evenodd" d="M5.20385 58.8814C8.38981 62.0694 13.5508 65.2728 16.1152 66.7754C15.7575 67.3396 15.4408 67.828 15.1809 68.2225C12.6202 66.7169 7.65443 63.6217 4.32959 60.4342C4.60119 59.9335 4.8933 59.4139 5.20385 58.8814ZM6.74174 56.3857C6.41377 56.89 6.0986 57.3917 5.79728 57.8862C8.94276 61.0604 13.8967 64.2131 16.6809 65.8709C16.9643 65.4132 17.2641 64.9213 17.5746 64.4006C14.7756 62.7372 9.70991 59.5205 6.74174 56.3857Z" fill="#A8A8A8"/>
<path fill-rule="evenodd" clip-rule="evenodd" d="M44.2473 58.7373C46.189 55.1967 47.5255 49.5064 48.2281 45.9253C48.8707 46.117 49.4298 46.2902 49.8844 46.4342C49.1772 49.9891 47.875 55.4504 45.9845 59.1391C45.4311 59.0202 44.85 58.8864 44.2473 58.7373ZM41.7173 57.5802C41.9146 57.6396 41.871 58.0967 42.0658 58.1531C42.4424 58.2612 42.815 58.3647 43.1804 58.4626C45.1277 54.8385 46.4729 49.2896 47.2093 45.6276C46.6897 45.4784 46.1316 45.3231 45.5443 45.1648C44.8141 48.8381 43.5519 53.9976 41.7173 57.5802Z" fill="#A8A8A8"/>
<path fill-rule="evenodd" clip-rule="evenodd" d="M44.2477 58.7372C44.342 58.5655 44.4342 58.3897 44.5249 58.2093C44.6833 58.4415 44.8432 58.6777 45.0046 58.9191C44.756 58.8612 44.5039 58.8002 44.2477 58.7372ZM42.8133 55.8279C42.7508 55.7454 42.6883 55.6645 42.6257 55.5835C42.3316 56.302 42.019 56.9805 41.689 57.598C41.8135 57.7825 41.938 57.9669 42.062 58.1514C42.4397 58.2601 42.8133 58.3641 43.1802 58.4625C43.3975 58.0582 43.6071 57.6303 43.8095 57.1834C43.4744 56.7119 43.1428 56.261 42.8133 55.8279Z" fill="#1C1C1C"/>
<path fill-rule="evenodd" clip-rule="evenodd" d="M18.9568 60.8708C23.3589 66.9666 34.0319 86.9341 35.7871 90.2348C35.2792 90.5628 34.7924 90.8703 34.3322 91.1547C32.9834 88.493 23.5449 69.9511 19.065 63.5643C18.9942 63.3389 18.9251 63.1149 18.8574 62.8915L18.9568 60.8708Z" fill="#A8A8A8"/>
<path fill-rule="evenodd" clip-rule="evenodd" d="M40.5366 121.266C40.9768 122.969 41.6758 124.318 42.5403 125.293C43.3899 126.25 44.402 126.845 45.4818 127.05C46.5646 127.256 47.732 127.076 48.8881 126.485C50.0806 125.875 51.2649 124.83 52.3488 123.322C52.2212 124.303 52.0577 125.359 51.8614 126.476C51.1517 127.124 50.4163 127.636 49.6707 128.016C48.1599 128.789 46.6154 129.02 45.1641 128.744C43.7082 128.467 42.3619 127.686 41.2509 126.433C40.5166 125.606 39.8863 124.573 39.3994 123.344C39.7551 122.601 40.1343 121.907 40.5366 121.266Z" fill="#3E4157"/>
<path fill-rule="evenodd" clip-rule="evenodd" d="M70.8359 93.2413C70.9245 93.291 71.0137 93.3387 71.1039 93.3858C72.8903 94.3041 75.1538 94.6562 77.4363 94.4328C79.7245 94.2093 82.0177 93.4053 83.8559 92.0145C84.3013 91.6778 84.7189 91.3068 85.1033 90.9004C84.9439 91.7675 84.7466 92.6945 84.518 93.6666C82.4902 95.0836 80.0391 95.9092 77.5983 96.147C74.9986 96.4011 72.3958 95.9886 70.3142 94.9176L70.2788 94.8996C70.452 94.3267 70.6375 93.7727 70.8359 93.2413Z" fill="#3E4157"/>
<path fill-rule="evenodd" clip-rule="evenodd" d="M28.4197 37.854C25.8189 37.9242 23.3155 37.1452 22.1835 36.3668C21.4917 35.8913 20.9218 35.2927 20.3305 34.174C20.2316 33.9864 20.1311 33.784 20.0302 33.5652C19.9056 33.2962 19.7791 33.0015 19.6489 32.6792C19.6463 32.6715 19.6433 32.6643 19.6402 32.6571C19.2897 31.7829 18.914 30.7011 18.4907 29.3425C18.2248 30.7134 17.9332 31.8602 17.8799 32.0652C17.9624 32.5495 18.0352 32.981 18.1002 33.3659C18.6337 36.5175 18.6337 36.5175 18.6337 36.5175C18.6337 36.5175 18.6727 36.6087 18.7623 36.763C18.7731 36.7804 18.7839 36.7988 18.7951 36.8178C19.0872 37.3036 19.8119 38.2896 21.2437 39.0931C22.428 39.7583 24.0976 40.2984 26.4057 40.3271C27.1708 40.3363 27.8718 40.2933 28.5129 40.2077C33.0431 39.601 34.5963 36.8711 34.8633 35.6027C34.8905 35.4736 34.8961 35.2189 34.8828 34.8628C33.9711 35.86 32.5296 37.0945 30.6868 37.5547C29.9437 37.7407 29.1776 37.8335 28.4197 37.854Z" fill="#1A2037"/>
<path fill-rule="evenodd" clip-rule="evenodd" d="M18.5922 28.9411C18.585 28.9309 18.5784 28.9211 18.5712 28.9114C18.5707 28.9155 18.5702 28.9206 18.5691 28.9242C18.5435 29.0651 18.5174 29.2045 18.4907 29.3424C18.914 30.7009 19.1062 32.7892 19.4572 33.6629C19.4598 33.6706 19.4629 33.6778 19.4654 33.6849C19.5956 34.0078 19.7222 34.3019 19.8467 34.571C19.9476 34.7903 20.0481 34.9922 20.147 35.1798C20.7389 36.298 21.2708 37.2481 22.183 37.8748C23.0952 38.5026 25.636 38.747 28.2362 38.6763C28.9941 38.6558 29.3933 39.2498 30.6862 38.9264C31.9792 38.6035 34.6107 36.8202 34.8823 34.8626C34.851 33.9729 34.707 32.4474 34.5072 30.6486C34.4938 30.5313 31.2141 31.8995 26.3375 31.3937C22.8205 31.0284 19.3153 29.718 18.5922 28.9411ZM29.872 33.583C29.6813 33.9934 29.4825 34.3634 29.2775 34.695C28.9736 35.1875 28.6569 35.5939 28.3356 35.9203C26.5133 37.7764 24.5618 37.0405 24.1298 34.5397C24.094 34.3332 24.0688 34.1144 24.055 33.8843C24.0366 33.5881 24.0376 33.2734 24.0586 32.9393C24.0719 32.7277 24.094 32.5089 24.1247 32.2823C24.1995 31.7315 24.3907 31.9964 24.8693 32.4612C26.3293 33.8766 27.9282 34.1257 29.872 33.583Z" fill="#1A2037"/>
</svg>
