<svg width="16" height="16" viewBox="0 0 16 16" fill="none" xmlns="http://www.w3.org/2000/svg">
<path d="M12.8232 1.16675H3.1765C2.0685 1.16675 1.1665 2.06808 1.1665 3.17675V12.8241C1.1665 13.9321 2.06784 14.8341 3.1765 14.8341H12.8238C13.9318 14.8341 14.8338 13.9327 14.8338 12.8241V3.17675C14.8332 2.06808 13.9318 1.16675 12.8232 1.16675ZM14.0292 12.8234C14.0292 13.4881 13.4885 14.0294 12.8232 14.0294H3.1765C2.51184 14.0294 1.9705 13.4887 1.9705 12.8234V11.3694L5.2145 7.76475L9.5965 11.7481L12.0198 9.72875L14.0298 11.4034L14.0292 12.8234ZM14.0292 10.3574L12.0192 8.68275L9.6185 10.6827L5.15784 6.62675L1.9705 10.1681V3.17675C1.9705 2.51208 2.51117 1.97075 3.1765 1.97075H12.8238C13.4885 1.97075 14.0298 2.51141 14.0298 3.17675L14.0292 10.3574Z" fill="#565656"/>
<path d="M10.8142 7.19603C11.9222 7.19603 12.8242 6.29469 12.8242 5.18603C12.8242 4.07736 11.9229 3.17603 10.8142 3.17603C9.7062 3.17603 8.8042 4.07736 8.8042 5.18603C8.8042 6.29469 9.70553 7.19603 10.8142 7.19603ZM10.8142 3.98069C11.4789 3.98069 12.0202 4.52136 12.0202 5.18669C12.0202 5.85203 11.4795 6.39269 10.8142 6.39269C10.1489 6.39269 9.6082 5.85203 9.6082 5.18669C9.6082 4.52136 10.1489 3.98069 10.8142 3.98069Z" fill="#565656"/>
</svg>
