<svg width="30" height="36" viewBox="0 0 30 36" fill="none" xmlns="http://www.w3.org/2000/svg">
<path d="M16.6158 22.4089L16.266 27.9576C16.2319 28.5303 15.7428 28.9694 15.1855 28.9305L13.9969 28.8506C13.4367 28.8143 13.0102 28.3189 13.0471 27.7409L13.394 22.267C12.6007 21.7818 12.0064 20.9663 11.8159 19.9572C11.4547 18.0783 12.649 16.2485 14.4803 15.8793C16.3115 15.5102 18.0859 16.739 18.4471 18.6202C18.7485 20.1997 17.958 21.7379 16.6158 22.4089ZM26.4403 11.043L3.86244 10.0983C1.72408 10.0082 -0.0446384 11.7863 0.000858602 13.9852L0.333561 31.4029C0.367684 33.4237 1.93448 35.0651 3.89654 35.145C10.6927 35.4316 17.4888 35.7156 24.2849 35.9967C26.2356 36.0795 27.9161 34.5927 28.1294 32.598C28.7464 26.8245 29.3606 21.0488 29.9777 15.2756C30.2109 13.0767 28.5872 11.1308 26.4403 11.043Z" fill="#C4C4C4"/>
<path d="M24.9678 12.6669L22.596 12.3986C22.8745 9.78933 22.1739 7.26257 20.6209 5.28567C19.3548 3.68065 17.6666 2.65847 15.9841 2.4831C14.1047 2.28688 12.0142 3.13859 10.3908 4.75664C8.44099 6.69997 7.43373 9.45102 7.62787 12.3005L5.24758 12.4706C5.0028 8.89625 6.27455 5.44311 8.73078 2.9939C10.8522 0.877798 13.6517 -0.226851 16.2204 0.0391092C18.536 0.279023 20.815 1.62879 22.4778 3.74229C24.4332 6.23288 25.3195 9.40212 24.9678 12.6669Z" fill="#C4C4C4"/>
</svg>
