<svg width="143" height="89" viewBox="0 0 143 89" fill="none" xmlns="http://www.w3.org/2000/svg">
<path d="M86.0433 72.9628C86.0433 72.9628 75.7948 70.896 74.0828 71.0591C72.3706 71.2222 66.4388 73.8931 66.372 74.3818C66.3051 74.8707 66.5999 75.2598 67.6375 75.3028C68.6754 75.3456 72.0759 74.817 71.8703 75.2368C71.6646 75.6568 61.8899 77.8496 61.833 79.8335C61.7763 81.8173 67.2556 85.3587 71.8106 85.4863C76.3656 85.614 85.1698 80.0847 85.9348 79.9975C92.4218 79.2582 86.0433 72.9628 86.0433 72.9628Z" fill="#ED975D"/>
<path d="M142.023 50.1419C138.02 55.137 134.682 59.0098 132.923 60.4176C131.526 61.5371 129.756 62.682 127.728 63.8282C113.116 72.09 85.0131 80.4732 85.0131 80.4732C85.0131 80.4732 84.9931 80.4599 84.9576 80.4332C84.6048 80.1757 82.6723 78.6868 81.4487 76.2073C80.3791 74.0384 80.5991 72.6932 80.9171 71.9879C81.1106 71.5588 81.34 71.3651 81.34 71.3651C81.34 71.3651 115.017 49.8007 117.711 47.5549C119.238 46.2812 124.77 33.3788 129.275 22.4404C129.905 23.3556 130.515 24.2854 131.106 25.2282C135.833 32.7466 139.481 41.1415 142.023 50.1419Z" fill="#EBDBA0"/>
<path d="M54.4034 73.5791C54.4034 73.5791 64.8574 73.5893 66.5033 74.0894C68.1492 74.5896 73.4345 78.3857 73.4035 78.8781C73.3723 79.3704 73.0064 79.6934 71.9807 79.5291C70.9552 79.3651 67.7266 78.1714 67.8451 78.6237C67.9636 79.076 77.1104 83.1674 76.7734 85.1232C76.4365 87.0791 70.3649 89.4613 65.8752 88.6815C61.3854 87.9018 53.8502 80.7332 53.1176 80.4955C46.9058 78.4821 54.4034 73.5791 54.4034 73.5791Z" fill="#FFB27D"/>
<path d="M56.2972 77.1543C55.3442 78.793 54.0888 79.9433 53.2747 80.5794C52.7791 80.9672 52.4477 81.1636 52.4477 81.1636C52.4477 81.1636 32.3307 73.6173 17.7482 65.6423C12.9286 63.006 8.713 60.3231 6.02895 57.8517C4.81613 56.7349 2.84883 54.2419 0.449707 50.923C2.54426 43.6608 5.04678 36.7626 7.99874 30.3863C9.44627 27.2575 11.0011 24.2533 12.6715 21.3925C13.2531 23.1284 13.8525 24.9027 14.4544 26.6611V26.6639C17.6489 36.0004 20.923 44.9504 22.0895 46.0674C24.6214 48.4952 56.7374 72.3305 56.7374 72.3305C56.7374 72.3305 57.1523 72.733 57.2664 73.6003C57.3709 74.3867 57.2265 75.5565 56.2972 77.1543Z" fill="#430D0B"/>
<path d="M95.8573 3.09351H41.0073V52.9391H95.8573V3.09351Z" fill="#EBDBA0"/>
<path d="M95.8573 0.10376H41.0073V3.09354H95.8573V0.10376Z" fill="#430D0B"/>
<path d="M42.8478 1.00037C42.5179 1.00037 42.2505 1.26833 42.2505 1.59864C42.2505 1.92926 42.5179 2.19706 42.8478 2.19706C43.1776 2.19706 43.4451 1.92926 43.4451 1.59864C43.4451 1.26833 43.1776 1.00037 42.8478 1.00037Z" fill="#EBDBA0"/>
<path d="M45.1857 1.00037C44.8558 1.00037 44.5884 1.26833 44.5884 1.59864C44.5884 1.92926 44.8558 2.19706 45.1857 2.19706C45.5156 2.19706 45.7829 1.92926 45.7829 1.59864C45.7829 1.26833 45.5156 1.00037 45.1857 1.00037Z" fill="#EBDBA0"/>
<path d="M47.5392 1.00037C47.2095 1.00037 46.9419 1.26833 46.9419 1.59864C46.9419 1.92926 47.2095 2.19706 47.5392 2.19706C47.869 2.19706 48.1365 1.92926 48.1365 1.59864C48.1365 1.26833 47.869 1.00037 47.5392 1.00037Z" fill="#EBDBA0"/>
<path d="M57.4795 9.58699H78.4344C78.9817 9.58699 79.4292 9.13856 79.4292 8.59029C79.4292 8.04218 78.9817 7.59375 78.4344 7.59375H57.4795C56.9323 7.59375 56.4849 8.04218 56.4849 8.59029C56.4849 9.13856 56.9323 9.58699 57.4795 9.58699Z" fill="#430D0B"/>
<path d="M52.7041 13.0081H83.2086C83.7556 13.0081 84.2032 12.5597 84.2032 12.0116C84.2032 11.4635 83.7556 11.0149 83.2086 11.0149H52.7041C52.157 11.0149 51.7095 11.4635 51.7095 12.0116C51.7095 12.5595 52.157 13.0081 52.7041 13.0081Z" fill="#430D0B"/>
<path d="M50.1255 22.0109H86.8907C87.2922 22.0109 87.6204 21.6821 87.6204 21.28C87.6204 20.8781 87.2923 20.5492 86.8907 20.5492H50.1255C49.7244 20.5492 49.396 20.8781 49.396 21.28C49.396 21.682 49.7243 22.0109 50.1255 22.0109Z" fill="#430D0B"/>
<path d="M86.8907 23.921H50.1255C49.7244 23.921 49.396 24.2499 49.396 24.6518C49.396 25.0537 49.7243 25.3827 50.1255 25.3827H86.8907C87.2922 25.3827 87.6204 25.054 87.6204 24.6519C87.6203 24.2502 87.2922 23.921 86.8907 23.921Z" fill="#430D0B"/>
<path d="M86.8907 27.2927H50.1255C49.7244 27.2927 49.396 27.6215 49.396 28.0235C49.396 28.4255 49.7243 28.7546 50.1255 28.7546H86.8907C87.2922 28.7546 87.6204 28.4255 87.6204 28.0235C87.6203 27.6216 87.2922 27.2927 86.8907 27.2927Z" fill="#430D0B"/>
<path d="M53.817 39.551H50.1255C49.7244 39.551 49.396 39.8801 49.396 40.2819C49.396 40.6838 49.7243 41.0129 50.1255 41.0129H53.817C54.2181 41.0129 54.5465 40.6838 54.5465 40.2819C54.5464 39.8801 54.2181 39.551 53.817 39.551Z" fill="#430D0B"/>
<path d="M59.9845 39.551H56.293C55.8919 39.551 55.5635 39.8801 55.5635 40.2819C55.5635 40.6838 55.8918 41.0129 56.293 41.0129H59.9845C60.3856 41.0129 60.7139 40.6838 60.7139 40.2819C60.7139 39.8801 60.3857 39.551 59.9845 39.551Z" fill="#430D0B"/>
<path d="M80.7246 39.551H77.0332C76.6321 39.551 76.3037 39.8801 76.3037 40.2819C76.3037 40.6838 76.632 41.0129 77.0332 41.0129H80.7246C81.1258 41.0129 81.4541 40.6838 81.4541 40.2819C81.4539 39.8801 81.1258 39.551 80.7246 39.551Z" fill="#430D0B"/>
<path d="M86.8916 39.551H83.2004C82.7991 39.551 82.4707 39.8801 82.4707 40.2819C82.4707 40.6838 82.799 41.0129 83.2004 41.0129H86.8916C87.293 41.0129 87.6213 40.6838 87.6213 40.2819C87.6211 39.8801 87.293 39.551 86.8916 39.551Z" fill="#430D0B"/>
<path d="M54.8393 41.9019C52.6951 41.9019 50.9507 43.6495 50.9507 45.7979C50.9507 47.9458 52.6951 49.6937 54.8393 49.6937C56.9833 49.6937 58.7277 47.9458 58.7277 45.7979C58.7277 43.6495 56.9833 41.9019 54.8393 41.9019ZM54.8393 49.4972C52.8032 49.4972 51.1469 47.8378 51.1469 45.7979C51.1469 43.7579 52.8032 42.0983 54.8393 42.0983C56.8753 42.0983 58.5317 43.7579 58.5317 45.7979C58.5317 47.8378 56.8753 49.4972 54.8393 49.4972Z" fill="#430D0B"/>
<path d="M54.8402 42.6586C53.1126 42.6586 51.707 44.0668 51.707 45.7979C51.707 47.5288 53.1126 48.937 54.8402 48.937C56.5678 48.937 57.9734 47.5288 57.9734 45.7979C57.9734 44.0668 56.5678 42.6586 54.8402 42.6586ZM54.8402 48.7405C53.2207 48.7405 51.9029 47.4204 51.9029 45.7979C51.9029 44.1751 53.2207 42.855 54.8402 42.855C56.4596 42.855 57.7774 44.1751 57.7774 45.7979C57.7774 47.4204 56.4596 48.7405 54.8402 48.7405Z" fill="#430D0B"/>
<path d="M53.7749 47.0823C53.3576 47.0474 53.1415 46.8507 53.1324 46.4978C53.1254 46.2281 53.2243 45.9931 53.4269 45.7945C53.5073 46.2017 53.7218 46.5453 53.9588 46.6196C54.0926 46.6615 54.2222 46.6154 54.3239 46.4899C54.4239 46.3665 54.5243 46.2012 54.6043 46.0278C54.6486 46.0706 54.7011 46.0943 54.7602 46.097C54.905 46.104 55.0489 45.9884 55.1768 45.7634C55.2106 45.7039 55.242 45.6383 55.27 45.5704C55.2797 45.5806 55.2898 45.5889 55.3008 45.595C55.322 45.607 55.3786 45.6287 55.443 45.5743C55.513 45.5156 55.6022 45.377 55.6839 45.215C55.7011 45.2487 55.7228 45.2747 55.7494 45.2901C55.7809 45.3083 55.8464 45.3272 55.9281 45.2519C55.9712 45.212 55.9692 45.1662 55.9528 45.137C55.931 45.0976 55.8623 45.0695 55.7611 45.0525C55.761 45.052 55.7608 45.0514 55.7608 45.0511C55.8689 44.8019 55.9436 44.542 55.9037 44.4459C55.8868 44.405 55.8495 44.382 55.8068 44.3859C55.7357 44.3928 55.685 44.4647 55.6541 44.6062C55.6301 44.7167 55.6175 44.8878 55.6354 45.0326C55.6345 45.0344 55.6339 45.0356 55.6332 45.0373C55.5603 45.032 55.4781 45.0304 55.3893 45.0325C55.3872 44.9708 55.3753 44.9195 55.3521 44.8837C55.3157 44.828 55.2746 44.8275 55.2534 44.8322C55.1978 44.8455 55.178 44.912 55.1696 44.9689C55.1665 44.9898 55.1642 45.0156 55.1626 45.0445C54.9054 45.0654 54.6208 45.1115 54.3655 45.1809C54.02 45.2745 53.7364 45.4029 53.5192 45.5603C53.5116 45.4373 53.5222 45.2858 53.6098 45.2309C53.7113 45.1667 53.895 45.2461 53.9569 45.282L54.0189 45.1764C54.0072 45.1695 53.731 45.0106 53.5452 45.1269C53.4303 45.1987 53.3809 45.3525 53.3986 45.5842C53.4002 45.6067 53.4024 45.629 53.4049 45.6514C53.1382 45.8848 53.0021 46.1725 53.0106 46.5009C53.0212 46.9148 53.2892 47.1646 53.7653 47.2045C54.0775 47.2304 54.4745 47.1615 54.8814 47.0295C55.7861 46.7357 56.627 46.1087 56.7949 45.5403C56.5524 46.2531 54.7928 47.1673 53.7749 47.0823ZM55.7922 44.5555C55.7878 44.5894 55.7775 44.6333 55.7631 44.6836C55.7711 44.6314 55.7812 44.5869 55.7922 44.5555ZM55.3831 45.1564C55.4545 45.1545 55.5199 45.1547 55.5779 45.157C55.5068 45.3022 55.4288 45.4295 55.3605 45.4883C55.3605 45.4883 55.3433 45.477 55.3243 45.4193C55.3527 45.3287 55.3733 45.2381 55.3831 45.1564ZM54.727 45.2251C54.8794 45.1976 55.0269 45.1792 55.1624 45.1684C55.1659 45.2509 55.1765 45.3406 55.1967 45.4175C55.1652 45.5118 55.1231 45.6104 55.0706 45.7028C54.9698 45.8798 54.8585 45.9787 54.7658 45.9746C54.7194 45.9725 54.6846 45.9414 54.6584 45.9012C54.7602 45.6409 54.8063 45.3797 54.727 45.2251ZM54.6068 45.2622C54.6651 45.3415 54.6525 45.5172 54.591 45.7201C54.5533 45.5351 54.5758 45.327 54.6068 45.2622ZM53.8966 45.4808C54.079 45.394 54.2762 45.3283 54.4728 45.2797C54.4381 45.4131 54.4429 45.6073 54.4724 45.749C54.485 45.8096 54.502 45.8632 54.523 45.9087C54.4496 46.0851 54.3473 46.2661 54.2286 46.4128C54.1591 46.499 54.0804 46.5295 53.995 46.5028C53.8128 46.4457 53.5983 46.13 53.534 45.7004C53.6357 45.6201 53.7567 45.5467 53.8966 45.4808Z" fill="#430D0B"/>
<path d="M56.7944 45.5405C56.8028 45.516 56.8097 45.4915 56.8142 45.4675C56.8097 45.4917 56.8017 45.516 56.7944 45.5405Z" fill="#430D0B"/>
<path d="M81.8567 42.0056C79.6606 42.0056 77.874 43.7957 77.874 45.996C77.874 48.1961 79.6606 49.9862 81.8567 49.9862C84.0526 49.9862 85.8393 48.1961 85.8393 45.996C85.8395 43.7956 84.0527 42.0056 81.8567 42.0056ZM81.8567 49.785C79.7713 49.785 78.0747 48.0853 78.0747 45.996C78.0747 43.9068 79.7713 42.207 81.8567 42.207C83.9419 42.207 85.6384 43.9068 85.6384 45.996C85.6384 48.0853 83.942 49.785 81.8567 49.785Z" fill="#430D0B"/>
<path d="M81.8571 42.7806C80.0874 42.7806 78.6479 44.223 78.6479 45.9959C78.6479 47.7688 80.0874 49.2111 81.8571 49.2111C83.6265 49.2111 85.0661 47.7688 85.0661 45.9959C85.0662 44.2231 83.6265 42.7806 81.8571 42.7806ZM81.8571 49.01C80.1982 49.01 78.8488 47.6579 78.8488 45.9959C78.8488 44.334 80.1982 42.9819 81.8571 42.9819C83.5159 42.9819 84.8653 44.334 84.8653 45.9959C84.8653 47.6579 83.5159 49.01 81.8571 49.01Z" fill="#430D0B"/>
<path d="M83.8584 45.7321C83.867 45.7072 83.8739 45.6822 83.8786 45.6576C83.8739 45.6824 83.8658 45.7073 83.8584 45.7321Z" fill="#430D0B"/>
<path d="M80.7648 47.3113C80.3377 47.2756 80.1162 47.0743 80.1067 46.7126C80.0997 46.4364 80.2009 46.1956 80.4085 45.9925C80.4905 46.4093 80.7104 46.7615 80.9531 46.8373C81.0903 46.8803 81.223 46.8331 81.327 46.7045C81.4293 46.5779 81.5323 46.409 81.6141 46.2312C81.6597 46.2751 81.7133 46.2993 81.7738 46.3022C81.9221 46.3093 82.0695 46.1907 82.2005 45.9603C82.2351 45.8997 82.2672 45.8325 82.2958 45.7626C82.3056 45.7729 82.3162 45.7817 82.3274 45.7881C82.3491 45.8003 82.407 45.8226 82.4733 45.7667C82.5448 45.7067 82.6362 45.5647 82.72 45.3987C82.7374 45.4333 82.7596 45.46 82.787 45.4758C82.8195 45.4942 82.8864 45.5136 82.9701 45.4362C83.0143 45.3956 83.0122 45.3489 82.9954 45.3187C82.9732 45.2783 82.9026 45.2495 82.7989 45.232C82.7987 45.2315 82.7987 45.2311 82.7987 45.2305C82.9093 44.9753 82.9859 44.7094 82.945 44.6108C82.9275 44.5689 82.8895 44.5455 82.8457 44.5494C82.7727 44.5566 82.7208 44.6302 82.6893 44.7751C82.6645 44.8883 82.6517 45.0633 82.6699 45.212C82.6691 45.2137 82.6685 45.2151 82.6677 45.2167C82.593 45.2112 82.5085 45.2097 82.4181 45.2117C82.4156 45.1487 82.4034 45.0961 82.3795 45.0592C82.3423 45.0022 82.3001 45.0017 82.2786 45.0064C82.2215 45.0201 82.2014 45.0881 82.1927 45.1466C82.1894 45.1681 82.1871 45.1945 82.1857 45.224C81.9223 45.2455 81.6308 45.2928 81.3691 45.3637C81.015 45.4593 80.7249 45.5912 80.5024 45.7523C80.4944 45.6261 80.5055 45.4709 80.5952 45.4145C80.6992 45.3489 80.8874 45.4303 80.9509 45.4672L81.0139 45.359C81.002 45.352 80.7193 45.1894 80.529 45.3083C80.4113 45.3819 80.3608 45.5393 80.3787 45.7767C80.3804 45.7995 80.3826 45.8226 80.3852 45.8454C80.112 46.0843 79.9726 46.379 79.9813 46.7154C79.9921 47.1395 80.2666 47.3953 80.7541 47.4359C81.0739 47.4626 81.4806 47.3918 81.8975 47.2567C82.824 46.9559 83.6853 46.3137 83.8572 45.7312C83.6098 46.4621 81.8077 47.3984 80.7648 47.3113ZM82.8308 44.7234C82.8265 44.7583 82.816 44.8031 82.8014 44.8547C82.8093 44.8011 82.8199 44.7556 82.8308 44.7234ZM82.4121 45.3387C82.4851 45.3369 82.552 45.3372 82.6116 45.3395C82.5388 45.4881 82.4589 45.6186 82.3889 45.6787C82.3889 45.6787 82.3713 45.6673 82.3518 45.6083C82.3809 45.5151 82.402 45.4226 82.4121 45.3387ZM81.7401 45.4093C81.8958 45.3811 82.0472 45.3622 82.1858 45.3511C82.1894 45.4356 82.2002 45.5275 82.2211 45.6062C82.1888 45.7029 82.1459 45.804 82.092 45.8986C81.9887 46.0798 81.8746 46.1811 81.7797 46.177C81.7322 46.1748 81.6965 46.1428 81.6696 46.102C81.7743 45.8351 81.8212 45.5676 81.7401 45.4093ZM81.6168 45.4472C81.6767 45.5286 81.6637 45.7084 81.6009 45.9162C81.5624 45.7268 81.5851 45.5137 81.6168 45.4472ZM80.8894 45.6708C81.0764 45.5823 81.2784 45.5148 81.4799 45.465C81.4441 45.6015 81.4491 45.8004 81.4792 45.9458C81.4923 46.0079 81.5096 46.0625 81.5313 46.1093C81.4563 46.29 81.3514 46.4754 81.2297 46.6256C81.1585 46.7139 81.0778 46.7453 80.9903 46.7178C80.8038 46.6593 80.5841 46.3362 80.5183 45.8961C80.6225 45.814 80.7463 45.7387 80.8894 45.6708Z" fill="#430D0B"/>
</svg>
