<svg width="25" height="24" viewBox="0 0 25 24" fill="none" xmlns="http://www.w3.org/2000/svg">
<mask id="path-1-inside-1_145_1562" fill="white">
<path d="M20.25 21V19C20.25 17.9391 19.8286 16.9217 19.0784 16.1716C18.3283 15.4214 17.3109 15 16.25 15H8.25C7.18913 15 6.17172 15.4214 5.42157 16.1716C4.67143 16.9217 4.25 17.9391 4.25 19V21"/>
</mask>
<path d="M18.25 21C18.25 22.1046 19.1454 23 20.25 23C21.3546 23 22.25 22.1046 22.25 21H18.25ZM16.25 15V13V15ZM8.25 15V13V15ZM4.25 19H2.25H4.25ZM2.25 21C2.25 22.1046 3.14543 23 4.25 23C5.35457 23 6.25 22.1046 6.25 21H2.25ZM20.25 21H22.25V19H20.25H18.25V21H20.25ZM20.25 19H22.25C22.25 17.4087 21.6179 15.8826 20.4926 14.7574L19.0784 16.1716L17.6642 17.5858C18.0393 17.9609 18.25 18.4696 18.25 19H20.25ZM19.0784 16.1716L20.4926 14.7574C19.3674 13.6321 17.8413 13 16.25 13V15V17C16.7804 17 17.2891 17.2107 17.6642 17.5858L19.0784 16.1716ZM16.25 15V13H8.25V15V17H16.25V15ZM8.25 15V13C6.6587 13 5.13258 13.6321 4.00736 14.7574L5.42157 16.1716L6.83579 17.5858C7.21086 17.2107 7.71957 17 8.25 17V15ZM5.42157 16.1716L4.00736 14.7574C2.88214 15.8826 2.25 17.4087 2.25 19H4.25H6.25C6.25 18.4696 6.46071 17.9609 6.83579 17.5858L5.42157 16.1716ZM4.25 19H2.25V21H4.25H6.25V19H4.25Z" fill="white" mask="url(#path-1-inside-1_145_1562)"/>
<path d="M12.25 11C14.4591 11 16.25 9.20914 16.25 7C16.25 4.79086 14.4591 3 12.25 3C10.0409 3 8.25 4.79086 8.25 7C8.25 9.20914 10.0409 11 12.25 11Z" stroke="white" stroke-width="2" stroke-linecap="round" stroke-linejoin="round"/>
</svg>
