<svg width="16" height="16" viewBox="0 0 16 16" fill="none" xmlns="http://www.w3.org/2000/svg">
<path fill-rule="evenodd" clip-rule="evenodd" d="M14.3335 14H1.66683C0.930496 14 0.333496 13.403 0.333496 12.6667V3.33333C0.333496 2.597 0.930496 2 1.66683 2H14.3335C15.0698 2 15.6668 2.597 15.6668 3.33333V12.6667C15.6668 13.403 15.0698 14 14.3335 14ZM4.00016 2.66667H1.66683C1.29883 2.66667 1.00016 2.96533 1.00016 3.33333V4H4.00016V2.66667ZM7.66683 2.66667H4.66683V4H7.66683V2.66667ZM11.3335 2.66667H8.3335V4H11.3335V2.66667ZM15.0002 3.33333C15.0002 2.96533 14.7015 2.66667 14.3335 2.66667H12.0002V4H15.0002V3.33333ZM15.0002 4.66667H1.00016V11.3333H15.0002V4.66667ZM15.0002 12H12.0002V13.3333H11.3335V12H8.3335V13.3333H7.66683V12H4.66683V13.3333H4.00016V12H1.00016V12.6667C1.00016 13.0347 1.29883 13.3333 1.66683 13.3333H14.3335C14.7015 13.3333 15.0002 13.0347 15.0002 12.6667V12ZM7.20716 9.92167C7.14983 9.968 7.0795 10 7.00016 10C6.81583 10 6.66683 9.851 6.66683 9.66667V6.33333C6.66683 6.14933 6.81583 6 7.00016 6C7.07116 6 7.1335 6.02733 7.18783 6.06533L9.77816 7.68933C9.90683 7.735 10.0002 7.85533 10.0002 8C10.0002 8.10833 9.94516 8.20033 9.86516 8.261L7.20716 9.92167Z" fill="#565656"/>
</svg>
